<?xml version="1.0" encoding="UTF-8" standalone="no"?>
<!-- Created with Inkscape (http://www.inkscape.org/) -->

<svg
   width="168.48949mm"
   height="103.42362mm"
   viewBox="0 0 168.48949 103.42362"
   version="1.1"
   id="svg5927"
   sodipodi:docname="gang.svg"
   inkscape:version="1.1 (c68e22c387, 2021-05-23)"
   inkscape:export-filename="C:\Users\442491\Desktop\gangbold.png"
   inkscape:export-xdpi="96"
   inkscape:export-ydpi="96"
   xmlns:inkscape="http://www.inkscape.org/namespaces/inkscape"
   xmlns:sodipodi="http://sodipodi.sourceforge.net/DTD/sodipodi-0.dtd"
   xmlns="http://www.w3.org/2000/svg"
   xmlns:svg="http://www.w3.org/2000/svg">
  <sodipodi:namedview
     id="namedview5929"
     pagecolor="#ffffff"
     bordercolor="#666666"
     borderopacity="1.0"
     inkscape:pageshadow="2"
     inkscape:pageopacity="0.0"
     inkscape:pagecheckerboard="0"
     inkscape:document-units="mm"
     showgrid="false"
     inkscape:zoom="1.2502642"
     inkscape:cx="319.13255"
     inkscape:cy="197.15833"
     inkscape:window-width="1920"
     inkscape:window-height="1017"
     inkscape:window-x="-8"
     inkscape:window-y="-8"
     inkscape:window-maximized="1"
     inkscape:current-layer="layer1" />
  <defs
     id="defs5924">
    <inkscape:path-effect
       effect="bspline"
       id="path-effect1482"
       is_visible="true"
       lpeversion="1"
       weight="33.333333"
       steps="2"
       helper_size="0"
       apply_no_weight="true"
       apply_with_weight="true"
       only_selected="false" />
    <inkscape:path-effect
       effect="bspline"
       id="path-effect1478"
       is_visible="true"
       lpeversion="1"
       weight="33.333333"
       steps="2"
       helper_size="0"
       apply_no_weight="true"
       apply_with_weight="true"
       only_selected="false" />
    <inkscape:path-effect
       effect="bspline"
       id="path-effect1474"
       is_visible="true"
       lpeversion="1"
       weight="33.333333"
       steps="2"
       helper_size="0"
       apply_no_weight="true"
       apply_with_weight="true"
       only_selected="false" />
    <inkscape:path-effect
       effect="bspline"
       id="path-effect1470"
       is_visible="true"
       lpeversion="1"
       weight="33.333333"
       steps="2"
       helper_size="0"
       apply_no_weight="true"
       apply_with_weight="true"
       only_selected="false" />
    <inkscape:path-effect
       effect="bspline"
       id="path-effect1466"
       is_visible="true"
       lpeversion="1"
       weight="33.333333"
       steps="2"
       helper_size="0"
       apply_no_weight="true"
       apply_with_weight="true"
       only_selected="false" />
    <inkscape:path-effect
       effect="bspline"
       id="path-effect1462"
       is_visible="true"
       lpeversion="1"
       weight="33.333333"
       steps="2"
       helper_size="0"
       apply_no_weight="true"
       apply_with_weight="true"
       only_selected="false" />
    <inkscape:path-effect
       effect="bspline"
       id="path-effect1458"
       is_visible="true"
       lpeversion="1"
       weight="33.333333"
       steps="2"
       helper_size="0"
       apply_no_weight="true"
       apply_with_weight="true"
       only_selected="false" />
    <inkscape:path-effect
       effect="bspline"
       id="path-effect1454"
       is_visible="true"
       lpeversion="1"
       weight="33.333333"
       steps="2"
       helper_size="0"
       apply_no_weight="true"
       apply_with_weight="true"
       only_selected="false" />
    <inkscape:path-effect
       effect="bspline"
       id="path-effect1450"
       is_visible="true"
       lpeversion="1"
       weight="33.333333"
       steps="2"
       helper_size="0"
       apply_no_weight="true"
       apply_with_weight="true"
       only_selected="false" />
    <inkscape:path-effect
       effect="bspline"
       id="path-effect1446"
       is_visible="true"
       lpeversion="1"
       weight="33.333333"
       steps="2"
       helper_size="0"
       apply_no_weight="true"
       apply_with_weight="true"
       only_selected="false" />
    <inkscape:path-effect
       effect="bspline"
       id="path-effect1442"
       is_visible="true"
       lpeversion="1"
       weight="33.333333"
       steps="2"
       helper_size="0"
       apply_no_weight="true"
       apply_with_weight="true"
       only_selected="false" />
    <inkscape:path-effect
       effect="bspline"
       id="path-effect272"
       is_visible="true"
       lpeversion="1"
       weight="33.333333"
       steps="2"
       helper_size="0"
       apply_no_weight="true"
       apply_with_weight="true"
       only_selected="false" />
    <inkscape:path-effect
       effect="bspline"
       id="path-effect268"
       is_visible="true"
       lpeversion="1"
       weight="33.333333"
       steps="2"
       helper_size="0"
       apply_no_weight="true"
       apply_with_weight="true"
       only_selected="false" />
    <inkscape:path-effect
       effect="bspline"
       id="path-effect264"
       is_visible="true"
       lpeversion="1"
       weight="33.333333"
       steps="2"
       helper_size="0"
       apply_no_weight="true"
       apply_with_weight="true"
       only_selected="false" />
    <inkscape:path-effect
       effect="bspline"
       id="path-effect260"
       is_visible="true"
       lpeversion="1"
       weight="33.333333"
       steps="2"
       helper_size="0"
       apply_no_weight="true"
       apply_with_weight="true"
       only_selected="false" />
    <inkscape:path-effect
       effect="bspline"
       id="path-effect256"
       is_visible="true"
       lpeversion="1"
       weight="33.333333"
       steps="2"
       helper_size="0"
       apply_no_weight="true"
       apply_with_weight="true"
       only_selected="false" />
    <inkscape:path-effect
       effect="bspline"
       id="path-effect252"
       is_visible="true"
       lpeversion="1"
       weight="33.333333"
       steps="2"
       helper_size="0"
       apply_no_weight="true"
       apply_with_weight="true"
       only_selected="false" />
    <inkscape:path-effect
       effect="bspline"
       id="path-effect248"
       is_visible="true"
       lpeversion="1"
       weight="33.333333"
       steps="2"
       helper_size="0"
       apply_no_weight="true"
       apply_with_weight="true"
       only_selected="false" />
    <inkscape:path-effect
       effect="bspline"
       id="path-effect244"
       is_visible="true"
       lpeversion="1"
       weight="33.333333"
       steps="2"
       helper_size="0"
       apply_no_weight="true"
       apply_with_weight="true"
       only_selected="false" />
    <inkscape:path-effect
       effect="bspline"
       id="path-effect240"
       is_visible="true"
       lpeversion="1"
       weight="33.333333"
       steps="2"
       helper_size="0"
       apply_no_weight="true"
       apply_with_weight="true"
       only_selected="false" />
    <inkscape:path-effect
       effect="bspline"
       id="path-effect236"
       is_visible="true"
       lpeversion="1"
       weight="33.333333"
       steps="2"
       helper_size="0"
       apply_no_weight="true"
       apply_with_weight="true"
       only_selected="false" />
    <inkscape:path-effect
       effect="bspline"
       id="path-effect232"
       is_visible="true"
       lpeversion="1"
       weight="33.333333"
       steps="2"
       helper_size="0"
       apply_no_weight="true"
       apply_with_weight="true"
       only_selected="false" />
    <inkscape:path-effect
       effect="bspline"
       id="path-effect224"
       is_visible="true"
       lpeversion="1"
       weight="33.333333"
       steps="2"
       helper_size="0"
       apply_no_weight="true"
       apply_with_weight="true"
       only_selected="false" />
    <inkscape:path-effect
       effect="bspline"
       id="path-effect220"
       is_visible="true"
       lpeversion="1"
       weight="33.333333"
       steps="2"
       helper_size="0"
       apply_no_weight="true"
       apply_with_weight="true"
       only_selected="false" />
  </defs>
  <g
     inkscape:label="Layer 1"
     inkscape:groupmode="layer"
     id="layer1"
     transform="translate(-27.433949,-107.75601)">
    <path
       style="fill:none;stroke:#000000;stroke-width:0.8;stroke-linecap:butt;stroke-linejoin:miter;stroke-opacity:1;stroke-miterlimit:4;stroke-dasharray:none"
       d="m 29.356915,182.47992 v -13.01045 l -1.000803,-0.834 v -27.35531 l 22.017686,-5.33762 53.543012,-19.68248 32.02573,14.34486 12.67685,-7.17243 35.19494,12.34325 -0.3336,7.83963 -20.85009,-5.83802 -5.83802,47.20458 -29.69052,1.33441 -4.33682,-17.01367 -14.51165,-21.35048 -4.50362,-1.00081 -15.679263,2.33521 -28.02251,12.00965 -3.669615,23.68569 -14.678458,-0.3336 -1.834806,-16.34646 -11.509246,0.3336 1.167604,0.6672 10.341642,-0.1668 H 29.356915 Z"
       id="path5976" />
    <path
       style="fill:none;stroke:#000000;stroke-width:0.8;stroke-linecap:butt;stroke-linejoin:miter;stroke-opacity:1;stroke-miterlimit:4;stroke-dasharray:none"
       d="m 29.356915,182.47992 6.004824,0.3336 3.169214,-0.1668 h -3.502814 v -13.67765 9.00723 l 5.838024,-0.3336"
       id="path5978" />
    <path
       style="fill:none;stroke:#000000;stroke-width:0.8;stroke-linecap:butt;stroke-linejoin:miter;stroke-opacity:1;stroke-miterlimit:4;stroke-dasharray:none"
       d="M 56.378622,184.98193 Z"
       id="path5980" />
    <path
       style="fill:none;stroke:#000000;stroke-width:0.8;stroke-linecap:butt;stroke-linejoin:miter;stroke-opacity:1;stroke-miterlimit:4;stroke-dasharray:none"
       d="M 56.378622,184.98193 Z"
       id="path5982" />
    <path
       style="fill:none;stroke:#000000;stroke-width:0.8;stroke-linecap:butt;stroke-linejoin:miter;stroke-opacity:1;stroke-miterlimit:4;stroke-dasharray:none"
       d="m 103.75001,146.95138 0.1668,-30.69132 v 0 0"
       id="path5984" />
    <path
       style="fill:none;stroke:#000000;stroke-width:0.8;stroke-linecap:butt;stroke-linejoin:miter;stroke-opacity:1;stroke-miterlimit:4;stroke-dasharray:none"
       d="m 183.48073,143.61537 -5.67123,1.0008 -13.01045,-4.00321 -0.58976,-1.09017 2.8654,21.49048 0.77145,-19.28633 1.54291,0.22042 -1.98374,19.06591 0.77146,-0.33062 2.31435,-18.62508 0.44083,0.33062 -0.1102,18.8455 -10.80035,-1.32249 23.58443,2.75519 -10.1391,-1.4327 v -17.85363 l 2.64498,0.77145 v 17.4128 l 2.53477,0.22042 -0.33062,-17.19239 0.44083,14.65761 -10.13909,-1.65311 0.33062,0.1102"
       id="path6099" />
    <path
       style="fill:none;stroke:#000000;stroke-width:0.8;stroke-linecap:butt;stroke-linejoin:miter;stroke-opacity:1;stroke-miterlimit:4;stroke-dasharray:none"
       d="m 160.57244,156.49476 3.96747,0.44083"
       id="path6101" />
    <path
       style="fill:none;stroke:#000000;stroke-width:0.8;stroke-linecap:butt;stroke-linejoin:miter;stroke-opacity:1;stroke-miterlimit:4;stroke-dasharray:none"
       d="m 164.76033,160.0214 -2.12969,-22.24405 1.57865,1.74544 -1.57865,-1.74544"
       id="path6103" />
    <path
       style="fill:none;stroke:#000000;stroke-width:0.8;stroke-linecap:butt;stroke-linejoin:miter;stroke-opacity:1;stroke-miterlimit:4;stroke-dasharray:none"
       d="m 183.60583,162.66639 0.1102,23.03338 -9.80847,-0.44083 h -5.28996 l -11.82498,-0.27701 v 0 0"
       id="path6105" />
    <path
       style="fill:none;stroke:#000000;stroke-width:0.8;stroke-linecap:butt;stroke-linejoin:miter;stroke-opacity:1;stroke-miterlimit:4;stroke-dasharray:none"
       d="m 182.17313,168.94822 -8.92682,-0.22042 0.44083,14.65761 7.38391,-0.66124 0.33063,0.66124 0.55103,-0.22041 z"
       id="path6107" />
    <path
       style="fill:none;stroke:#000000;stroke-width:0.8;stroke-linecap:butt;stroke-linejoin:miter;stroke-opacity:1;stroke-miterlimit:4;stroke-dasharray:none"
       d="m 179.19752,168.83801 -0.44083,13.88616"
       id="path6109" />
    <path
       style="fill:none;stroke:#000000;stroke-width:0.8;stroke-linecap:butt;stroke-linejoin:miter;stroke-opacity:1;stroke-miterlimit:4;stroke-dasharray:none"
       d="m 176.55254,168.83801 v 14.10657"
       id="path6111" />
    <path
       style="fill:none;stroke:#000000;stroke-width:0.8;stroke-linecap:butt;stroke-linejoin:miter;stroke-opacity:1;stroke-miterlimit:4;stroke-dasharray:none"
       d="m 173.68714,178.20565 h 8.26557 v 0"
       id="path6113" />
    <path
       style="fill:none;stroke:#000000;stroke-width:0.8;stroke-linecap:butt;stroke-linejoin:miter;stroke-opacity:1;stroke-miterlimit:4;stroke-dasharray:none"
       d="m 159.24995,167.73594 9.36765,0.33062 -0.55104,15.42906 h -8.81661 v 0"
       id="path6150" />
    <path
       style="fill:none;stroke:#000000;stroke-width:0.8;stroke-linecap:butt;stroke-linejoin:miter;stroke-opacity:1;stroke-miterlimit:4;stroke-dasharray:none"
       d="m 162.77659,183.05479 v -15.20865 l -0.1102,0.11021"
       id="path6152" />
    <path
       style="fill:none;stroke:#000000;stroke-width:0.8;stroke-linecap:butt;stroke-linejoin:miter;stroke-opacity:1;stroke-miterlimit:4;stroke-dasharray:none"
       d="m 157.37642,178.75669 10.91055,-0.33062"
       id="path6154" />
    <path
       style="fill:none;stroke:#000000;stroke-width:0.8;stroke-linecap:butt;stroke-linejoin:miter;stroke-opacity:1;stroke-miterlimit:4;stroke-dasharray:none"
       d="M 181.95271,183.165 Z"
       id="path6156" />
    <path
       style="fill:none;stroke:#000000;stroke-width:0.8;stroke-linecap:butt;stroke-linejoin:miter;stroke-opacity:1;stroke-miterlimit:4;stroke-dasharray:none"
       d="m 181.95452,183.16604 1.97414,-0.11229"
       id="path6158" />
    <path
       style="fill:none;stroke:#000000;stroke-width:0.8;stroke-linecap:butt;stroke-linejoin:miter;stroke-opacity:1;stroke-miterlimit:4;stroke-dasharray:none"
       d="m 157.16793,183.49562 4.05616,-0.11229"
       id="path6158-8" />
    <path
       style="fill:none;stroke:#000000;stroke-width:0.8;stroke-linecap:butt;stroke-linejoin:miter;stroke-opacity:1;stroke-miterlimit:4;stroke-dasharray:none"
       d="m 127.1021,186.31634 -2.78795,-0.28595 -3.85727,-15.75968 -15.42906,-20.93944 -2.64498,-0.33062 -5.620586,0.55103 -6.943077,1.10208 -7.934946,3.19602 -6.39204,2.75519 -7.053284,3.08581 -6.722662,3.08581 -3.085812,22.26193 -2.251811,-0.0566 15.807341,0.71784 2.644984,0.33062 6.171623,0.11021 7.494117,0.22041 7.2737,0.44083 7.494113,0.44084 8.26557,-0.66125 7.16349,-0.22042 5.51038,-0.1102 z"
       id="path6195" />
    <path
       style="fill:none;stroke:#000000;stroke-width:0.8;stroke-linecap:butt;stroke-linejoin:miter;stroke-opacity:1;stroke-miterlimit:4;stroke-dasharray:none"
       d="m 61.275414,168.17677 6.612454,-0.11021 7.163493,-0.22042 6.061416,-0.55104 7.71453,-0.22041 8.155363,-0.55104 6.83287,-0.22041 7.60432,0.33062 6.50225,0.22041 0.55104,19.28633 v 0"
       id="path6197" />
    <path
       style="fill:none;stroke:#000000;stroke-width:0.8;stroke-linecap:butt;stroke-linejoin:miter;stroke-opacity:1;stroke-miterlimit:4;stroke-dasharray:none"
       d="m 111.30965,157.26621 0.22042,29.31522"
       id="path6199" />
    <path
       style="fill:none;stroke:#000000;stroke-width:0.8;stroke-linecap:butt;stroke-linejoin:miter;stroke-opacity:1;stroke-miterlimit:4;stroke-dasharray:none"
       d="m 102.38284,149.00065 v 0 l 0.88166,38.24202"
       id="path6201" />
    <path
       style="fill:none;stroke:#000000;stroke-width:0.8;stroke-linecap:butt;stroke-linejoin:miter;stroke-opacity:1;stroke-miterlimit:4;stroke-dasharray:none"
       d="m 96.321424,149.66189 0.330623,37.47058"
       id="path6203" />
    <path
       style="fill:none;stroke:#000000;stroke-width:0.8;stroke-linecap:butt;stroke-linejoin:miter;stroke-opacity:1;stroke-miterlimit:4;stroke-dasharray:none"
       d="m 89.819175,150.65376 -0.110207,36.03788"
       id="path6205" />
    <path
       style="fill:none;stroke:#000000;stroke-width:0.8;stroke-linecap:butt;stroke-linejoin:miter;stroke-opacity:1;stroke-miterlimit:4;stroke-dasharray:none"
       d="m 81.884231,154.29061 -0.110207,31.73978"
       id="path6207" />
    <path
       style="fill:none;stroke:#000000;stroke-width:0.8;stroke-linecap:butt;stroke-linejoin:miter;stroke-opacity:1;stroke-miterlimit:4;stroke-dasharray:none"
       d="m 74.941154,157.15601 -0.110207,28.87437"
       id="path6209" />
    <path
       style="fill:none;stroke:#000000;stroke-width:0.8;stroke-linecap:butt;stroke-linejoin:miter;stroke-opacity:1;stroke-miterlimit:4;stroke-dasharray:none"
       d="m 67.998077,160.24182 -0.220416,25.56816"
       id="path6211" />
    <path
       style="fill:none;stroke:#000000;stroke-width:0.8;stroke-linecap:butt;stroke-linejoin:miter;stroke-opacity:1;stroke-miterlimit:4;stroke-dasharray:none"
       d="m 40.866163,177.6427 c 1.176923,-0.0692 2.353598,-0.13831 3.265849,-0.0981 0.912251,0.0402 1.559994,0.1897 2.033313,0.23947 0.473318,0.0498 0.772272,-6e-5 1.07113,-0.17444 0.298859,-0.17438 0.597818,-0.47334 0.871859,-0.77229 0.274042,-0.29895 0.523175,-0.59791 0.921901,-0.82217 0.398726,-0.22426 0.946817,-0.37374 1.544784,-0.47338 0.597967,-0.0996 1.245707,-0.14947 1.694104,-0.22423 0.448397,-0.0748 0.697525,-0.17441 1.121156,-0.1245 0.42363,0.0499 1.021544,0.24922 1.494904,0.39869 0.473361,0.14947 0.82215,0.24913 1.195849,0.32384 0.373699,0.0747 0.772307,0.12454 1.07126,0.14943 0.298953,0.0249 0.498258,0.0249 0.697304,0.0249"
       id="path218"
       inkscape:path-effect="#path-effect220"
       inkscape:original-d="m 40.866163,177.6427 c 1.176938,-0.0689 2.353614,-0.13803 3.530023,-0.20744 0.648033,0.14975 1.295776,0.29923 1.943266,0.44845 0.299236,-0.0496 0.598194,-0.0994 0.896893,-0.14949 0.299236,-0.2987 0.598194,-0.59766 0.896893,-0.89689 0.249406,-0.2987 0.498538,-0.59766 0.74741,-0.89689 0.548378,-0.14922 1.096468,-0.2987 1.644304,-0.44844 0.648033,-0.0496 1.295775,-0.0994 1.943266,-0.14949 0.249407,-0.0994 0.498539,-0.19904 0.747411,-0.29896 0.598207,0.19958 1.196123,0.39888 1.793785,0.59793 0.349065,0.0999 0.697849,0.19957 1.046377,0.29896 0.398891,0.0501 0.797502,0.0999 1.195856,0.14948 0.199578,2.7e-4 0.398883,2.7e-4 0.597929,0" />
    <path
       style="fill:none;stroke:#000000;stroke-width:0.8;stroke-linecap:butt;stroke-linejoin:miter;stroke-opacity:1;stroke-miterlimit:4;stroke-dasharray:none"
       d="m 39.865358,169.13587 c 0.724844,-0.19555 1.44951,-0.39104 1.942466,-0.55412 0.492957,-0.16308 0.754268,-0.29374 0.999312,-0.37539 0.245045,-0.0816 0.473698,-0.11432 0.800366,-0.13063 0.326668,-0.0163 0.751301,-0.0163 1.143233,-0.0653 0.391933,-0.049 0.751244,-0.14702 1.061539,-0.24501 0.310294,-0.098 0.571614,-0.19599 0.849296,-0.27765 0.277682,-0.0817 0.571649,-0.14698 0.800339,-0.17963 0.228689,-0.0326 0.392008,-0.0326 0.653269,-0.098 0.261261,-0.0654 0.620567,-0.19601 0.947243,-0.294 0.326677,-0.098 0.620647,-0.16331 0.963662,-0.19596 0.343016,-0.0326 0.734983,-0.0326 1.11063,-0.0326 0.375648,0 0.734949,0 1.077868,-0.0654 0.342918,-0.0654 0.669555,-0.19601 0.914489,-0.32666 0.244934,-0.13064 0.408256,-0.2613 0.685958,-0.40831 0.277701,-0.147 0.669671,-0.31032 0.930982,-0.42465 0.261312,-0.11433 0.391957,-0.17965 0.73502,-0.21229 0.343063,-0.0326 0.898349,-0.0326 1.30666,-0.0326 0.40831,0 0.66962,0 0.963578,-0.0327 0.293957,-0.0327 0.620589,-0.098 0.898232,-0.16335 0.277643,-0.0653 0.506281,-0.13066 0.734757,-0.19594"
       id="path222"
       inkscape:path-effect="#path-effect224"
       inkscape:original-d="m 39.865358,169.13587 c 0.724929,-0.19523 1.449594,-0.39073 2.173994,-0.58649 0.261585,-0.1304 0.522898,-0.26105 0.783949,-0.39197 0.228923,-0.0324 0.457571,-0.0651 0.685957,-0.098 0.424912,2.7e-4 0.849545,2.7e-4 1.273921,0 0.359582,-0.0977 0.718886,-0.19572 1.077931,-0.29398 0.261588,-0.0977 0.522898,-0.19572 0.783952,-0.29398 0.294251,-0.0651 0.588227,-0.13039 0.881944,-0.19599 0.163592,2.6e-4 0.326911,2.6e-4 0.489968,0 0.359582,-0.13039 0.718886,-0.26105 1.077934,-0.39197 0.294251,-0.0651 0.588227,-0.1304 0.881944,-0.19599 0.392247,2.6e-4 0.784214,2.6e-4 1.175924,0 0.359585,2.6e-4 0.718886,2.6e-4 1.077934,0 0.326916,-0.1304 0.653555,-0.26105 0.979937,-0.39198 0.163592,-0.13039 0.326911,-0.26105 0.489969,-0.39197 0.392247,-0.16306 0.784217,-0.32638 1.175927,-0.48997 0.130924,-0.0651 0.261581,-0.1304 0.391975,-0.19599 0.555575,2.6e-4 1.110861,2.6e-4 1.665896,0 0.261586,2.6e-4 0.522896,2.6e-4 0.78395,0 0.326916,-0.0651 0.653555,-0.13039 0.979937,-0.19599 0.228923,-0.0651 0.457571,-0.13039 0.685956,-0.19599" />
    <path
       style="fill:none;stroke:#000000;stroke-width:0.8;stroke-linecap:butt;stroke-linejoin:miter;stroke-opacity:1;stroke-miterlimit:4;stroke-dasharray:none"
       d="m 28.41821,160.61188 c 0.326881,-0.0327 0.653529,-0.0654 0.963859,-0.0817 0.31033,-0.0163 0.604305,-0.0163 0.816554,-0.049 0.212249,-0.0327 0.342894,-0.098 0.506324,-0.0979 0.16343,8e-5 0.359413,0.0654 0.686063,0.14705 0.32665,0.0816 0.783937,0.17963 1.159562,0.2286 0.375625,0.049 0.669601,0.049 0.963584,0.049 0.293984,0 0.58796,0 0.832846,-0.0653 0.244885,-0.0654 0.440864,-0.19601 0.685939,-0.27767 0.245075,-0.0816 0.539052,-0.11432 0.865704,-0.14698 0.326652,-0.0327 0.685957,-0.0653 0.947257,-0.098 0.2613,-0.0327 0.424627,-0.0653 0.653237,-0.14701 0.22861,-0.0817 0.522588,-0.21233 0.767513,-0.37563 0.244926,-0.16329 0.440912,-0.35928 0.669588,-0.55528 0.228676,-0.196 0.489986,-0.39198 0.73501,-0.53897 0.245023,-0.147 0.473681,-0.24499 0.833032,-0.34298 0.359351,-0.098 0.849317,-0.19598 1.339258,-0.34298 0.489942,-0.147 0.9799,-0.34298 1.322896,-0.47364 0.342996,-0.13066 0.538971,-0.19598 0.865664,-0.24496 0.326693,-0.049 0.78399,-0.0816 1.159629,-0.11432 0.375638,-0.0327 0.669618,-0.0653 1.045223,-0.16335 0.375605,-0.098 0.8329,-0.26133 1.224884,-0.39199 0.391984,-0.13065 0.718632,-0.22865 1.110659,-0.27762 0.392028,-0.049 0.849323,-0.049 1.273955,-0.0653 0.424632,-0.0164 0.816602,-0.049 1.224841,-0.17969 0.408239,-0.13068 0.832866,-0.35933 1.273893,-0.52265 0.441026,-0.16332 0.898327,-0.26131 1.27399,-0.32663 0.375662,-0.0653 0.669642,-0.098 1.012639,-0.11431 0.342996,-0.0163 0.734964,-0.0163 1.09416,-0.14699 0.359196,-0.13067 0.685835,-0.39199 1.045156,-0.66964 0.359322,-0.27766 0.751287,-0.57163 1.143301,-0.81663 0.392013,-0.24499 0.783979,-0.44098 1.290291,-0.68597 0.506312,-0.24498 1.126925,-0.53896 1.698567,-0.80028 0.571641,-0.26132 1.094267,-0.48997 1.633262,-0.68595 0.538995,-0.19599 1.094282,-0.35931 1.502559,-0.5063 0.408276,-0.147 0.669589,-0.27765 1.077945,-0.40831 0.408355,-0.13065 0.963642,-0.26131 1.420987,-0.32661 0.457344,-0.0653 0.816647,-0.0653 1.159656,8e-5 0.343008,0.0654 0.66965,0.19605 0.930962,0.32675 0.261312,0.1307 0.457293,0.26135 0.702287,0.39198 0.244995,0.13063 0.538972,0.26129 0.963597,0.34288 0.424624,0.0816 0.979914,0.11427 1.53521,0.13059 0.555296,0.0163 1.110584,0.0163 1.551545,-2e-5 0.440961,-0.0163 0.767603,-0.049 1.192211,-0.14702 0.424609,-0.098 0.947233,-0.26133 1.224932,-0.34296 0.277699,-0.0816 0.310359,-0.0816 0.342759,-0.0816"
       id="path230"
       inkscape:path-effect="#path-effect232"
       inkscape:original-d="m 28.41821,160.61188 c 0.32691,-0.0324 0.653555,-0.0651 0.979937,-0.098 0.294252,2.6e-4 0.588227,2.6e-4 0.881944,0 0.130926,-0.0651 0.261583,-0.1304 0.391978,-0.19599 0.196254,0.0656 0.392239,0.13092 0.587962,0.19599 0.457578,0.0983 0.914874,0.19625 1.371912,0.29398 0.294254,2.6e-4 0.58823,2.6e-4 0.881946,0 0.294251,2.6e-4 0.588227,2.6e-4 0.881944,0 0.196257,-0.1304 0.392239,-0.26105 0.587962,-0.39198 0.294254,-0.0324 0.588227,-0.0651 0.881946,-0.098 0.359582,-0.0324 0.718884,-0.0651 1.077931,-0.098 0.163592,-0.0324 0.326912,-0.0651 0.489969,-0.098 0.294251,-0.13039 0.588227,-0.26105 0.881944,-0.39197 0.196257,-0.19573 0.392241,-0.39172 0.587965,-0.58797 0.261586,-0.19572 0.522898,-0.39169 0.78395,-0.58793 0.228921,-0.0977 0.457569,-0.19572 0.685957,-0.29398 0.490243,-0.0977 0.980203,-0.19572 1.469907,-0.29398 0.490244,-0.19573 0.980203,-0.39171 1.469908,-0.58796 0.196256,-0.0651 0.392239,-0.1304 0.587963,-0.19599 0.457578,-0.0324 0.914873,-0.0651 1.371913,-0.098 0.294252,-0.0324 0.588228,-0.0651 0.881945,-0.098 0.457578,-0.16306 0.914873,-0.32638 1.371913,-0.48997 0.326917,-0.0977 0.653557,-0.19572 0.979938,-0.29398 0.457579,2.7e-4 0.914874,2.7e-4 1.371914,0 0.392248,-0.0324 0.784215,-0.0651 1.175926,-0.098 0.424913,-0.2284 0.849544,-0.45704 1.27392,-0.68596 0.457578,-0.0977 0.914873,-0.19572 1.371913,-0.29398 0.294252,-0.0324 0.588228,-0.0651 0.881945,-0.098 0.392247,2.7e-4 0.784215,2.7e-4 1.175926,0 0.326917,-0.26105 0.653556,-0.52236 0.979938,-0.78395 0.392248,-0.29372 0.784215,-0.58769 1.175926,-0.88194 0.392248,-0.19573 0.784215,-0.39171 1.175926,-0.58796 0.620904,-0.29373 1.24152,-0.5877 1.861882,-0.88195 0.522909,-0.22839 1.045533,-0.45704 1.567902,-0.68595 0.555574,-0.16307 1.110861,-0.32639 1.665895,-0.48997 0.261586,-0.1304 0.522898,-0.26106 0.78395,-0.39198 0.555574,-0.1304 1.110862,-0.26105 1.665895,-0.39197 0.359583,2.6e-4 0.718886,2.6e-4 1.077933,0 0.326917,0.13092 0.653556,0.26158 0.979938,0.39197 0.196256,0.13093 0.39224,0.26158 0.587963,0.39198 0.294252,0.13092 0.588227,0.26158 0.881944,0.39197 0.555574,0.0329 1.110862,0.0656 1.665895,0.098 0.555574,2.6e-4 1.110862,2.6e-4 1.665895,0 0.326918,-0.0324 0.653557,-0.0651 0.979939,-0.098 0.522908,-0.16306 1.045532,-0.32638 1.567901,-0.48997 0.03293,2.7e-4 0.06559,2.7e-4 0.09799,0" />
    <path
       style="fill:none;stroke:#000000;stroke-width:0.8;stroke-linecap:butt;stroke-linejoin:miter;stroke-opacity:1;stroke-miterlimit:4;stroke-dasharray:none"
       d="m 76.141198,150.61667 c 0.784258,0.16333 1.568211,0.3266 2.090839,0.42456 0.522629,0.0979 0.783946,0.13062 1.110581,0.14694 0.326635,0.0163 0.718602,0.0163 1.028932,0.0327 0.31033,0.0164 0.538982,0.049 0.783979,0.13075 0.244997,0.0817 0.506312,0.21237 0.636811,0.29407 0.130499,0.0817 0.130499,0.1144 0.130499,0.1468"
       id="path234"
       inkscape:path-effect="#path-effect236"
       inkscape:original-d="m 76.141198,150.61667 c 0.784217,0.16353 1.56817,0.3268 2.351857,0.48981 0.261586,0.0329 0.522899,0.0656 0.78395,0.098 0.392248,2.7e-4 0.784215,2.7e-4 1.175925,0 0.228923,0.0329 0.45757,0.0656 0.685959,0.098 0.261585,0.13092 0.522898,0.26158 0.78395,0.39197 2.64e-4,0.0329 2.64e-4,0.0656 0,0.098" />
    <path
       style="fill:none;stroke:#000000;stroke-width:0.8;stroke-linecap:butt;stroke-linejoin:miter;stroke-opacity:1;stroke-miterlimit:4;stroke-dasharray:none"
       d="m 28.614198,152.3804 c 0.42465,-0.39199 0.84929,-0.78396 1.470042,-1.01262 0.620752,-0.22866 1.437348,-0.29398 1.976329,-0.32664 0.538981,-0.0327 0.800292,-0.0327 1.077886,-0.0817 0.277594,-0.049 0.571581,-0.14703 1.077891,-0.31035 0.50631,-0.16333 1.224921,-0.39197 1.665885,-0.53897 0.440965,-0.14699 0.604274,-0.21231 0.930989,-0.24495 0.326715,-0.0326 0.816673,-0.0326 1.322901,-0.16333 0.506227,-0.13069 1.028851,-0.392 1.453467,-0.63698 0.424615,-0.24497 0.751256,-0.47362 1.388299,-0.68595 0.637042,-0.21232 1.5843,-0.40831 2.302923,-0.55529 0.718624,-0.14699 1.208591,-0.24499 1.584231,-0.32665 0.375641,-0.0817 0.636947,-0.147 1.061522,-0.39198 0.424575,-0.24498 1.012526,-0.66961 1.616896,-0.9636 0.604369,-0.29399 1.224984,-0.45731 1.845627,-0.6043 0.620643,-0.14699 1.241257,-0.27765 1.796583,-0.35929 0.555326,-0.0816 1.045288,-0.11432 1.567943,-0.1143 0.522654,1e-5 1.077943,0.0327 1.665925,0.11437 0.587982,0.0817 1.208598,0.21234 1.53517,0.31046 0.326573,0.0981 0.359237,0.16346 0.57162,0.2123 0.212383,0.0488 0.604355,0.0815 1.159615,0.0162 0.555259,-0.0654 1.273867,-0.22868 1.894486,-0.39201 0.620618,-0.16332 1.143242,-0.32664 1.714888,-0.48996 0.571646,-0.16333 1.192261,-0.32665 1.829212,-0.52264 0.636952,-0.19599 1.290229,-0.42464 1.780131,-0.68594 0.489903,-0.2613 0.816543,-0.55528 1.257539,-0.89827 0.440995,-0.343 0.996285,-0.73496 1.714968,-1.07795 0.718684,-0.34299 1.60061,-0.63697 2.351955,-0.78393 0.751346,-0.14697 1.371961,-0.14697 1.959901,-0.19599 0.587939,-0.049 1.14323,-0.147 1.731202,-0.245 0.587971,-0.098 1.208589,-0.19598 1.796534,-0.32665 0.587945,-0.13067 1.143234,-0.29399 1.600564,-0.40831 0.457329,-0.11432 0.816627,-0.17964 1.339266,-0.27764 0.522639,-0.098 1.208583,-0.22865 1.959896,-0.32664 0.751314,-0.098 1.567908,-0.16331 2.351878,-0.19596 0.783971,-0.0327 1.535242,-0.0327 2.074183,-0.0653 0.53894,-0.0327 0.865575,-0.098 1.224898,-0.16334 0.359324,-0.0653 0.751285,-0.13065 1.224923,-0.21231 0.473638,-0.0817 1.028931,-0.17966 1.551579,-0.26132 0.522649,-0.0817 1.012603,-0.14698 1.567901,-0.22865 0.555298,-0.0817 1.175919,-0.17965 1.910856,-0.35932 0.734937,-0.17966 1.584198,-0.44097 2.384511,-0.63696 0.800313,-0.19598 1.551585,-0.32664 2.466198,-0.5063 0.914612,-0.17966 1.992525,-0.40831 2.809149,-0.57163 0.81663,-0.16332 1.37192,-0.26131 1.87821,-0.37565 0.50629,-0.11433 0.96358,-0.24498 1.25757,-0.32664 0.29399,-0.0817 0.42465,-0.11433 0.55511,-0.14695"
       id="path238"
       inkscape:path-effect="#path-effect240"
       inkscape:original-d="m 28.614198,152.3804 c 0.424905,-0.39171 0.849542,-0.78369 1.273918,-1.17593 0.816896,-0.0651 1.633495,-0.13039 2.449846,-0.19598 0.261588,2.6e-4 0.522899,2.6e-4 0.783952,0 0.294251,-0.0977 0.588227,-0.19573 0.881944,-0.29399 0.718899,-0.22839 1.437508,-0.45704 2.155865,-0.68595 0.163589,-0.0651 0.326908,-0.1304 0.489968,-0.19599 0.490244,2.7e-4 0.980202,2.7e-4 1.469906,0 0.522909,-0.26106 1.045533,-0.52237 1.567903,-0.78395 0.326916,-0.22839 0.653557,-0.45704 0.979937,-0.68596 0.947557,-0.19572 1.894813,-0.39171 2.841821,-0.58796 0.490243,-0.0977 0.980204,-0.19572 1.469908,-0.29398 0.261586,-0.0651 0.522899,-0.1304 0.78395,-0.19599 0.58824,-0.42438 1.176192,-0.84901 1.76389,-1.27392 0.620905,-0.16306 1.24152,-0.32638 1.861883,-0.48997 0.620903,-0.1304 1.241518,-0.26105 1.861881,-0.39197 0.490244,-0.0324 0.980204,-0.0651 1.469909,-0.098 0.555574,0.0329 1.110861,0.0656 1.665896,0.098 0.620903,0.13092 1.241517,0.26158 1.86188,0.39197 0.03293,0.0656 0.0656,0.13093 0.09799,0.19599 0.392248,0.0329 0.784217,0.0656 1.175928,0.098 0.718899,-0.16306 1.437507,-0.32638 2.155864,-0.48997 0.522907,-0.16306 1.04553,-0.32638 1.5679,-0.48996 0.620905,-0.16307 1.24152,-0.32639 1.861883,-0.48997 0.653569,-0.2284 1.306849,-0.45704 1.959877,-0.68596 0.326917,-0.29372 0.653556,-0.5877 0.979938,-0.88195 0.555574,-0.39171 1.110861,-0.78368 1.665896,-1.17592 0.882226,-0.29372 1.764151,-0.5877 2.645833,-0.88195 0.620903,2.7e-4 1.241518,2.7e-4 1.861881,0 0.555575,-0.0977 1.110861,-0.19572 1.665896,-0.29398 0.620906,-0.0977 1.24152,-0.19572 1.861883,-0.29398 0.555572,-0.16306 1.110861,-0.32638 1.665894,-0.48997 0.359582,-0.0651 0.718886,-0.13039 1.077933,-0.19598 0.686234,-0.1304 1.372177,-0.26106 2.057869,-0.39198 0.816898,-0.0651 1.633495,-0.13039 2.449846,-0.19599 0.751567,2.6e-4 1.502838,2.6e-4 2.253858,0 0.326916,-0.0651 0.653558,-0.13039 0.97994,-0.19599 0.392247,-0.0651 0.784214,-0.13039 1.175925,-0.19598 0.555574,-0.0977 1.110861,-0.19573 1.665896,-0.29399 0.490243,-0.0651 0.980202,-0.13039 1.469906,-0.19598 0.620905,-0.0977 1.24152,-0.19573 1.861883,-0.29398 0.849561,-0.26106 1.698823,-0.52237 2.54784,-0.78395 0.751564,-0.1304 1.502836,-0.26106 2.253858,-0.39198 1.078217,-0.22839 2.156129,-0.45704 3.233798,-0.68596 0.55558,-0.0977 1.11086,-0.19572 1.6659,-0.29398 0.45758,-0.13039 0.91487,-0.26105 1.37191,-0.39197 0.13093,-0.0324 0.26158,-0.0651 0.39197,-0.098" />
    <path
       style="fill:none;stroke:#000000;stroke-width:0.8;stroke-linecap:butt;stroke-linejoin:miter;stroke-opacity:1;stroke-miterlimit:4;stroke-dasharray:none"
       d="m 28.516204,146.99074 c 0.620892,0 1.24152,0 1.747724,-0.13068 0.506204,-0.13068 0.898171,-0.39199 1.257534,-0.57165 0.359364,-0.17966 0.686015,-0.27766 1.045375,-0.32663 0.35936,-0.049 0.751329,-0.049 1.224941,-0.098 0.473613,-0.049 1.028908,-0.147 1.535195,-0.26134 0.506287,-0.11433 0.963582,-0.24499 1.469919,-0.34297 0.506338,-0.098 1.061619,-0.16332 1.420949,-0.19597 0.359329,-0.0327 0.522649,-0.0327 1.045252,-0.147 0.522602,-0.11435 1.404528,-0.343 2.07413,-0.55532 0.669601,-0.21233 1.126899,-0.40832 1.698567,-0.58797 0.571668,-0.17965 1.257611,-0.34297 1.829237,-0.48997 0.571626,-0.14699 1.028924,-0.27764 1.567857,-0.5063 0.538934,-0.22865 1.159549,-0.5553 1.829258,-0.73493 0.669709,-0.17964 1.388316,-0.2123 2.041606,-0.26131 0.65329,-0.049 1.241236,-0.11434 1.763856,-0.19601 0.522619,-0.0817 0.979922,-0.17966 1.584216,-0.32666 0.604295,-0.14699 1.355561,-0.34298 1.894439,-0.60427 0.538877,-0.2613 0.865519,-0.58794 1.208509,-0.91459 0.342989,-0.32666 0.702292,-0.6533 1.012637,-0.8983 0.310344,-0.245 0.571657,-0.40832 1.078013,-0.60431 0.506357,-0.196 1.257628,-0.42465 1.927275,-0.6043 0.669646,-0.17965 1.257594,-0.31031 1.92722,-0.47363 0.669626,-0.16333 1.420896,-0.35932 1.927242,-0.45729 0.506345,-0.098 0.767655,-0.098 1.077973,-0.098 0.310318,0 0.669622,0 1.012464,-0.17965 0.342842,-0.17965 0.669482,-0.53895 1.110541,-0.81664 0.44106,-0.27768 0.996351,-0.47367 1.568009,-0.63699 0.571658,-0.16332 1.159608,-0.29397 1.633293,-0.34294 0.473684,-0.049 0.832991,-0.0163 1.077991,0.0491 0.245,0.0654 0.375637,0.16341 0.506123,0.098 0.130486,-0.0654 0.261143,-0.29405 0.587892,-0.50644 0.326749,-0.21239 0.849372,-0.40838 1.290434,-0.42461 0.441062,-0.0162 0.800366,0.14709 0.947168,0.27772 0.146801,0.13064 0.08149,0.2286 0.310213,0.13055 0.22872,-0.0981 0.751344,-0.39204 1.110626,-0.62068 0.359282,-0.22864 0.555265,-0.39196 0.88199,-0.53896 0.326725,-0.14701 0.784022,-0.27766 1.208711,-0.34297 0.424689,-0.0653 0.816655,-0.0653 1.126953,0.0818 0.310299,0.14714 0.538949,0.44112 0.685956,0.58796 0.147006,0.14684 0.212337,0.14684 0.48995,0.0815 0.277612,-0.0654 0.767572,-0.19601 1.126819,-0.343 0.359247,-0.14698 0.587894,-0.3103 0.816549,-0.47363 0.228654,-0.16332 0.457302,-0.32664 0.76766,-0.48998 0.310359,-0.16333 0.702326,-0.32665 1.257649,-0.52264 0.555323,-0.19599 1.27393,-0.42463 1.894581,-0.58795 0.620651,-0.16332 1.143281,-0.26131 1.486258,-0.32665 0.342977,-0.0653 0.506303,-0.098 0.767543,-0.24499 0.261241,-0.14699 0.620544,-0.4083 1.061598,-0.58796 0.441055,-0.17965 0.963684,-0.27765 1.453619,-0.42465 0.489934,-0.147 0.947228,-0.34298 1.420846,-0.58796 0.473617,-0.24499 0.963574,-0.53896 1.404622,-0.71862 0.441047,-0.17965 0.833008,-0.24498 1.257659,-0.3103 0.42465,-0.0653 0.88194,-0.13066 1.306495,-0.31032 0.424554,-0.17966 0.816519,-0.47363 1.257534,-0.73496 0.441014,-0.26133 0.930975,-0.48998 1.486286,-0.73497 0.55531,-0.24499 1.17592,-0.5063 1.69861,-0.66961 0.52269,-0.16332 0.94731,-0.22864 1.29025,-0.31032 0.34294,-0.0817 0.60426,-0.17966 0.882,-0.16323 0.27773,0.0164 0.57172,0.14711 0.96367,0.21237 0.39195,0.0653 0.88191,0.0653 1.37191,0.17966 0.49,0.1144 0.97996,0.34305 1.5516,0.55535 0.57164,0.2123 1.22491,0.40828 1.7802,0.686 0.5553,0.27772 1.0126,0.63702 1.40457,0.94734 0.39198,0.31031 0.71862,0.57163 1.20857,0.66949 0.48994,0.0979 1.14322,0.0325 1.73122,0.0326 0.588,3e-5 1.11062,0.0654 1.38824,0.11445 0.27762,0.0491 0.31032,0.0818 0.34272,0.1142"
       id="path242"
       inkscape:path-effect="#path-effect244"
       inkscape:original-d="m 28.516204,146.99074 c 0.620892,2.6e-4 1.24152,2.6e-4 1.861881,0 0.39225,-0.26106 0.784217,-0.52237 1.175927,-0.78395 0.326917,-0.0977 0.653558,-0.19573 0.979937,-0.29398 0.392248,2.6e-4 0.784217,2.6e-4 1.175928,0 0.555572,-0.0977 1.110861,-0.19573 1.665893,-0.29398 0.457579,-0.1304 0.914874,-0.26106 1.371915,-0.39198 0.555575,-0.0651 1.110861,-0.13039 1.665896,-0.19599 0.163589,2.7e-4 0.326909,2.7e-4 0.489969,0 0.882226,-0.22839 1.764151,-0.45704 2.645833,-0.68595 0.457578,-0.19573 0.914874,-0.39172 1.371912,-0.58797 0.686237,-0.16306 1.37218,-0.32638 2.057871,-0.48997 0.457578,-0.13039 0.914874,-0.26105 1.371915,-0.39197 0.620903,-0.32639 1.241518,-0.65303 1.861881,-0.97994 0.718902,-0.0324 1.437507,-0.0651 2.155864,-0.098 0.588241,-0.0651 1.17619,-0.1304 1.76389,-0.19599 0.457579,-0.0977 0.914874,-0.19573 1.371912,-0.29398 0.751568,-0.19573 1.502836,-0.39171 2.253859,-0.58797 0.326916,-0.32638 0.653558,-0.65302 0.979937,-0.97993 0.359585,-0.32639 0.718886,-0.65303 1.077934,-0.97994 0.261585,-0.16306 0.522898,-0.32638 0.78395,-0.48997 0.751564,-0.22839 1.502835,-0.45704 2.253858,-0.68596 0.58824,-0.1304 1.176189,-0.26105 1.76389,-0.39197 0.751564,-0.19573 1.502836,-0.39171 2.253858,-0.58797 0.261586,2.7e-4 0.522896,2.7e-4 0.78395,0 0.359582,2.7e-4 0.718886,2.7e-4 1.077931,0 0.326916,-0.35905 0.653558,-0.71835 0.97994,-1.07793 0.555572,-0.19572 1.110861,-0.39171 1.665893,-0.58796 0.58824,-0.1304 1.176192,-0.26105 1.76389,-0.39198 0.359582,0.0329 0.718886,0.0656 1.077931,0.098 0.130926,0.0983 0.261583,0.19625 0.391975,0.29398 0.130926,-0.22839 0.261583,-0.45704 0.391977,-0.68596 0.522907,-0.19573 1.045531,-0.39171 1.5679,-0.58796 0.359582,0.16359 0.718886,0.32691 1.077934,0.48997 -0.06507,0.0983 -0.130395,0.19625 -0.195988,0.29398 0.522907,-0.29372 1.04553,-0.5877 1.5679,-0.88195 0.196257,-0.16306 0.392239,-0.32638 0.587962,-0.48997 0.457579,-0.13039 0.914874,-0.26105 1.371915,-0.39197 0.392248,2.6e-4 0.784214,2.6e-4 1.175925,0 0.228923,0.29425 0.45757,0.58823 0.685959,0.88194 0.06559,2.7e-4 0.130921,2.7e-4 0.195987,0 0.490244,-0.13039 0.980202,-0.26105 1.469906,-0.39197 0.228923,-0.16306 0.45757,-0.32638 0.685956,-0.48997 0.228923,-0.16306 0.45757,-0.32638 0.685959,-0.48997 0.392247,-0.16306 0.784214,-0.32638 1.175925,-0.48997 0.718902,-0.22839 1.437507,-0.45704 2.155864,-0.68595 0.522909,-0.0977 1.045533,-0.19573 1.567902,-0.29399 0.16359,-0.0324 0.326909,-0.0651 0.489969,-0.098 0.359582,-0.26106 0.718886,-0.52237 1.077931,-0.78395 0.522909,-0.0977 1.045533,-0.19572 1.567902,-0.29398 0.457579,-0.19573 0.914874,-0.39171 1.371913,-0.58796 0.490243,-0.29373 0.980204,-0.5877 1.469908,-0.88195 0.392248,-0.0651 0.784215,-0.13039 1.175925,-0.19599 0.457578,-0.0651 0.914873,-0.13039 1.371915,-0.19599 0.392247,-0.29372 0.784214,-0.58769 1.175924,-0.88194 0.490244,-0.22839 0.980205,-0.45704 1.469909,-0.68596 0.620907,-0.26105 1.241517,-0.52236 1.861877,-0.78395 0.42492,-0.0651 0.84955,-0.13039 1.27392,-0.19599 0.26159,-0.0977 0.5229,-0.19572 0.78395,-0.29398 0.29425,0.13093 0.58823,0.2616 0.88195,0.392 0.49024,2.7e-4 0.9802,2.7e-4 1.46991,0 0.49024,0.22892 0.9802,0.45757 1.46991,0.68596 0.65357,0.19625 1.30684,0.39224 1.95987,0.58796 0.45758,0.35958 0.91488,0.71889 1.37192,1.07793 0.32691,0.26159 0.65355,0.5229 0.97993,0.78395 0.65357,-0.0651 1.30685,-0.13039 1.95988,-0.19598 0.52291,0.0656 1.04553,0.13092 1.5679,0.19598 0.0329,0.0329 0.0656,0.0656 0.098,0.098" />
    <path
       style="fill:none;stroke:#000000;stroke-width:0.8;stroke-linecap:butt;stroke-linejoin:miter;stroke-opacity:1;stroke-miterlimit:4;stroke-dasharray:none"
       d="m 115.63272,128.46981 c 0.91492,0.49017 1.82953,0.98017 2.71148,1.32312 0.88195,0.34295 1.73121,0.53893 2.4335,0.70226 0.70229,0.16332 1.25759,0.29398 1.89455,0.44097 0.63697,0.14699 1.35557,0.31031 2.00888,0.47364 0.6533,0.16333 1.24125,0.32665 1.84555,0.539 0.60431,0.21235 1.22493,0.47366 1.86188,0.66961 0.63696,0.19595 1.29024,0.3266 1.92721,0.48995 0.63697,0.16334 1.25759,0.35933 1.95988,0.55531 0.7023,0.19598 1.48624,0.39196 2.13953,0.55529 0.6533,0.16332 1.17593,0.29398 1.73119,0.34293 0.55527,0.0489 1.14323,0.0163 1.73114,-0.1144 0.58792,-0.13068 1.17587,-0.35932 1.69856,-0.48996 0.52269,-0.13064 0.97999,-0.16331 1.32294,-0.21233 0.34295,-0.049 0.57159,-0.11434 0.93084,-0.31032 0.35926,-0.19599 0.84922,-0.52263 1.24131,-0.66958 0.39209,-0.14695 0.68608,-0.11428 1.09433,-0.16332 0.40826,-0.049 0.93089,-0.1797 1.38818,-0.31036 0.45729,-0.13066 0.84926,-0.26132 1.51894,-0.35929 0.66968,-0.098 1.61693,-0.16331 2.31926,-0.0489 0.70232,0.11444 1.15962,0.40841 1.58427,0.65338 0.42464,0.24497 0.81661,0.44095 1.43725,0.68591 0.62063,0.24497 1.4699,0.53894 2.33553,0.89828 0.86562,0.35933 1.74754,0.78396 2.51516,1.20863 0.76762,0.42467 1.4209,0.8493 2.29634,1.25724 0.87544,0.40794 1.97297,0.79925 3.07022,1.19046 0,0 0,0 0,0"
       id="path246"
       inkscape:path-effect="#path-effect248"
       inkscape:original-d="m 115.63272,128.46981 c 0.91487,0.49026 1.82948,0.98027 2.74382,1.47 0.84956,0.19626 1.69883,0.39224 2.54784,0.58797 0.55557,0.13092 1.11086,0.26158 1.6659,0.39197 0.7189,0.16359 1.4375,0.32691 2.15586,0.48997 0.58824,0.16359 1.17619,0.32691 1.76389,0.48997 0.6209,0.26159 1.24152,0.5229 1.86188,0.78395 0.65357,0.13093 1.30685,0.26158 1.95988,0.39197 0.6209,0.19626 1.24152,0.39224 1.86188,0.58797 0.78423,0.19625 1.56817,0.39224 2.35185,0.58796 0.52291,0.13093 1.04554,0.26158 1.5679,0.39198 0.58824,-0.0324 1.17619,-0.0651 1.76389,-0.098 0.58824,-0.22839 1.17619,-0.45704 1.76389,-0.68595 0.45758,-0.0324 0.91488,-0.0651 1.37191,-0.098 0.22893,-0.0651 0.45758,-0.13039 0.68596,-0.19599 0.49024,-0.32638 0.98021,-0.65302 1.46991,-0.97993 0.29425,0.0329 0.58823,0.0656 0.88194,0.098 0.52291,-0.1304 1.04554,-0.26105 1.56791,-0.39198 0.39224,-0.13039 0.78421,-0.26105 1.17592,-0.39197 0.94756,-0.0651 1.89481,-0.13039 2.84182,-0.19599 0.45758,0.29425 0.91488,0.58823 1.37192,0.88195 0.39224,0.19625 0.78421,0.39224 1.17592,0.58796 0.84956,0.29425 1.69883,0.58823 2.54784,0.88194 0.88223,0.42492 1.76415,0.84955 2.64583,1.27392 0.65357,0.42492 1.30685,0.84955 1.95988,1.27392 1.09785,0.39159 2.19538,0.7829 3.29268,1.17396 0,0 2.6e-4,2.6e-4 0,0" />
    <path
       style="fill:none;stroke:#000000;stroke-width:0.8;stroke-linecap:butt;stroke-linejoin:miter;stroke-opacity:1;stroke-miterlimit:4;stroke-dasharray:none"
       d="m 144.54089,126.11805 c 0.55555,0.62091 1.11085,1.24154 1.68249,1.55171 0.57165,0.31018 1.1596,0.31018 1.66592,0.47362 0.50632,0.16344 0.93095,0.49007 1.30654,0.94743 0.37558,0.45735 0.70222,1.0453 0.94721,1.48628 0.24499,0.44098 0.40831,0.73495 0.63698,1.09426 0.22867,0.35931 0.52264,0.78394 0.81667,1.01246 0.29402,0.22852 0.58801,0.26119 0.88169,0.29382"
       id="path250"
       inkscape:path-effect="#path-effect252"
       inkscape:original-d="m 144.54089,126.11805 c 0.55557,0.6209 1.11087,1.24152 1.6659,1.86189 0.58824,2.6e-4 1.17619,2.6e-4 1.76389,0 0.42491,0.32691 0.84954,0.65355 1.27392,0.97994 0.32691,0.58823 0.65355,1.17618 0.97994,1.76388 0.16358,0.29426 0.32691,0.58823 0.48996,0.88195 0.29426,0.42491 0.58823,0.84954 0.88195,1.27392 0.29425,0.0329 0.58823,0.0656 0.88194,0.098" />
    <path
       style="fill:none;stroke:#000000;stroke-width:0.8;stroke-linecap:butt;stroke-linejoin:miter;stroke-opacity:1;stroke-miterlimit:4;stroke-dasharray:none"
       d="m 103.87345,135.0355 c 0.7516,0.19606 1.50289,0.39205 2.18885,0.58805 0.68597,0.19599 1.30658,0.39198 1.86189,0.57164 0.5553,0.17966 1.04526,0.34298 1.66589,0.47361 0.62062,0.13062 1.37189,0.22862 1.99253,0.37565 0.62064,0.14704 1.11061,0.34302 1.74758,0.58801 0.63696,0.24498 1.42089,0.53895 2.20485,0.84928 0.78396,0.31033 1.5679,0.63697 2.30286,0.93094 0.73496,0.29398 1.4209,0.55529 1.94355,0.73493 0.52264,0.17964 0.88193,0.27763 1.19223,0.34294 0.3103,0.0653 0.57162,0.098 1.14327,0.22865 0.57165,0.13069 1.45358,0.35934 2.49885,0.55531 1.04527,0.19597 2.25383,0.35929 3.11945,0.47361 0.86562,0.11432 1.38824,0.17965 1.97622,0.294 0.58798,0.11434 1.24126,0.27766 1.91088,0.40831 0.66963,0.13064 1.35557,0.22863 1.7312,0.2776 0.37563,0.049 0.44095,0.049 0.8166,0.049 0.37565,0 1.06159,0 1.48624,0 0.42464,0 0.58796,0 0.75125,-0.0163 0.1633,-0.0164 0.32662,-0.049 0.80025,-0.17969 0.47363,-0.13067 1.25756,-0.35932 1.76389,-0.48997 0.50633,-0.13065 0.73498,-0.16332 1.14332,-0.16329 0.40833,2e-5 0.99628,0.0327 1.56794,0.14707 0.57166,0.11438 1.12694,0.31036 1.78024,0.50634 0.6533,0.19597 1.40457,0.39195 1.82921,0.48991 0.42464,0.0979 0.52259,0.0979 0.9636,0.26134 0.44101,0.1634 1.22494,0.49004 1.92722,0.86572 0.70229,0.37568 1.32291,0.80032 1.8292,1.17598 0.5063,0.37566 0.89827,0.7023 1.60055,0.83283 0.70228,0.13053 1.71486,0.0652 2.43351,0.0652 0.71865,3e-5 1.14328,0.0654 1.60058,0.098 0.45729,0.0326 0.94725,0.0326 1.55157,0.098 0.60432,0.0653 1.32293,0.19601 1.84553,0.24496 0.5226,0.049 0.84924,0.0163 1.04517,-0.0164 0.19593,-0.0327 0.26126,-0.0653 0.57164,-0.11433 0.31038,-0.049 0.86567,-0.11431 1.06157,-0.098 0.1959,0.0163 0.0326,0.11431 -0.13081,0.21235"
       id="path254"
       inkscape:path-effect="#path-effect256"
       inkscape:original-d="m 103.87345,135.0355 c 0.75155,0.19625 1.50284,0.39223 2.25386,0.58795 0.62091,0.19626 1.24152,0.39224 1.86189,0.58797 0.49024,0.16359 0.9802,0.32691 1.4699,0.48997 0.75157,0.0983 1.50284,0.19625 2.25386,0.29398 0.49024,0.19625 0.98021,0.39224 1.46991,0.58796 0.78423,0.29425 1.56816,0.58823 2.35185,0.88195 0.78423,0.32691 1.56817,0.65355 2.35185,0.97994 0.68624,0.26158 1.37218,0.52289 2.05787,0.78394 0.35959,0.0983 0.71889,0.19626 1.07794,0.29399 0.26158,0.0329 0.52289,0.0656 0.78395,0.098 0.88222,0.22892 1.76415,0.45757 2.64583,0.68596 1.20888,0.16359 2.41744,0.32691 3.62577,0.48997 0.52291,0.0656 1.04553,0.13092 1.5679,0.19598 0.65357,0.16359 1.30685,0.32691 1.95988,0.48997 0.68623,0.0983 1.37218,0.19626 2.05787,0.29398 0.0656,2.7e-4 0.13092,2.7e-4 0.19599,0 0.68623,2.7e-4 1.37217,2.7e-4 2.05787,0 0.16359,2.7e-4 0.32691,2.7e-4 0.48997,0 0.16359,-0.0324 0.32691,-0.0651 0.48997,-0.098 0.78423,-0.22839 1.56816,-0.45704 2.35185,-0.68596 0.22892,-0.0324 0.45757,-0.0651 0.68595,-0.098 0.58824,0.0329 1.17619,0.0656 1.76389,0.098 0.55558,0.19626 1.11086,0.39224 1.6659,0.58797 0.75156,0.19625 1.50283,0.39224 2.25386,0.58796 0.0983,2.6e-4 0.19625,2.6e-4 0.29398,0 0.78423,0.32692 1.56816,0.65356 2.35185,0.97994 0.6209,0.42491 1.24152,0.84954 1.86188,1.27392 0.39225,0.32691 0.78422,0.65356 1.17593,0.97994 1.01289,-0.0651 2.02547,-0.1304 3.0378,-0.19599 0.42492,0.0656 0.84955,0.13092 1.27393,0.19599 0.49024,2.6e-4 0.9802,2.6e-4 1.4699,0 0.7189,0.13092 1.43751,0.26158 2.15587,0.39197 0.32691,-0.0324 0.65355,-0.0651 0.97994,-0.098 0.0656,-0.0324 0.13092,-0.0651 0.19598,-0.098 0.55558,-0.0651 1.11087,-0.13039 1.6659,-0.19598 -0.16306,0.0983 -0.32638,0.19625 -0.48997,0.29398" />
    <path
       style="fill:none;stroke:#000000;stroke-width:0.8;stroke-linecap:butt;stroke-linejoin:miter;stroke-opacity:1;stroke-miterlimit:4;stroke-dasharray:none"
       d="m 111.125,151.89043 c 0.58828,0.19609 1.17624,0.39208 1.82952,0.49002 0.65327,0.0979 1.37188,0.0979 2.07418,0.0979 0.70229,0 1.38823,0 1.94354,0.0163 0.55531,0.0163 0.97995,0.049 1.43722,0.0163 0.45726,-0.0327 0.94722,-0.13069 1.50253,-0.22868 0.55531,-0.098 1.17593,-0.19599 2.00892,-0.21229 0.833,-0.0163 1.87824,0.049 2.64588,0.17974 0.76764,0.13071 1.2576,0.3267 1.82923,0.50633 0.57163,0.17963 1.22492,0.34295 1.89455,0.57163 0.66964,0.22869 1.35558,0.52266 2.05788,0.76763 0.70229,0.24496 1.4209,0.44094 2.02518,0.55523 0.60428,0.1143 1.09424,0.14696 1.69852,0.13061 0.60429,-0.0163 1.32289,-0.0817 2.04153,-0.13068 0.71864,-0.049 1.43724,-0.0816 2.13954,-0.0816 0.70231,1e-5 1.38826,0.0327 1.9762,0.0163 0.58795,-0.0163 1.0779,-0.0817 1.63313,-0.31034 0.55523,-0.22867 1.17584,-0.62063 1.56781,-0.86562 0.39198,-0.24498 0.55531,-0.34298 0.94737,-0.42463 0.39206,-0.0816 1.01268,-0.14698 1.45367,-0.17963 0.44099,-0.0326 0.7023,-0.0326 1.32293,-0.0326 0.62064,0 1.60056,0 2.58052,0.0327 0.97996,0.0327 1.95988,0.098 2.62952,0.19605 0.66965,0.098 1.02895,0.2287 1.33926,0.39208 0.3103,0.16338 0.57161,0.35936 0.99627,0.58797 0.42466,0.22861 1.01261,0.48993 1.5189,0.80029 0.50629,0.31037 0.93092,0.66968 1.24125,0.88193 0.31033,0.21225 0.50632,0.27758 1.00604,0.39165 0.49973,0.11408 1.30318,0.27694 2.10635,0.43974"
       id="path258"
       inkscape:path-effect="#path-effect260"
       inkscape:original-d="m 111.125,151.89043 c 0.58823,0.19625 1.17619,0.39224 1.76389,0.58796 0.7189,2.7e-4 1.43751,2.7e-4 2.15586,0 0.68624,2.7e-4 1.37218,2.7e-4 2.05787,0 0.42491,0.0329 0.84955,0.0656 1.27392,0.098 0.49025,-0.0977 0.9802,-0.19573 1.46991,-0.29398 0.6209,-0.0977 1.24152,-0.19573 1.86188,-0.29399 1.04556,0.0656 2.0908,0.13093 3.1358,0.19599 0.49025,0.19626 0.98021,0.39224 1.46991,0.58797 0.65357,0.16358 1.30685,0.32691 1.95988,0.48996 0.68623,0.29426 1.37218,0.58823 2.05787,0.88195 0.7189,0.19625 1.43751,0.39224 2.15586,0.58796 0.49025,0.0329 0.9802,0.0656 1.46991,0.098 0.7189,-0.0651 1.43751,-0.1304 2.15586,-0.19599 0.71891,-0.0324 1.43751,-0.0651 2.15587,-0.098 0.68623,0.0329 1.37218,0.0656 2.05787,0.098 0.49024,-0.0651 0.9802,-0.1304 1.46991,-0.19599 0.6209,-0.39172 1.24151,-0.78369 1.86188,-1.17593 0.16359,-0.0977 0.32691,-0.19572 0.48997,-0.29398 0.6209,-0.0651 1.24152,-0.13039 1.86188,-0.19598 0.26159,2.6e-4 0.5229,2.6e-4 0.78395,0 0.98022,2.6e-4 1.96014,2.6e-4 2.93982,0 0.98022,0.0656 1.96014,0.13092 2.93981,0.19598 0.35958,0.13093 0.71889,0.26158 1.07793,0.39198 0.26159,0.19626 0.5229,0.39224 0.78395,0.58796 0.58824,0.26159 1.17619,0.5229 1.76389,0.78395 0.42492,0.35958 0.84955,0.71889 1.27392,1.07793 0.19626,0.0656 0.39224,0.13093 0.58797,0.19599 0.80374,0.16313 1.60719,0.32599 2.4104,0.48859" />
    <path
       style="fill:none;stroke:#000000;stroke-width:0.8;stroke-linecap:butt;stroke-linejoin:miter;stroke-opacity:1;stroke-miterlimit:4;stroke-dasharray:none"
       d="m 120.14043,165.1196 c 0.5229,0 1.04553,0 1.61716,-0.0163 0.57164,-0.0163 1.19225,-0.049 1.78023,-0.049 0.58798,1e-5 1.14327,0.0327 2.1069,0.13069 0.96362,0.098 2.33551,0.26132 3.38077,0.34297 1.04526,0.0816 1.76387,0.0816 2.53151,0.14699 0.76764,0.0654 1.58425,0.19601 2.27022,0.35937 0.68597,0.16335 1.24125,0.35934 1.84555,0.5063 0.6043,0.14696 1.25756,0.24495 2.27017,0.32659 1.01261,0.0816 2.38449,0.14698 3.65842,0.19597 1.27394,0.049 2.44984,0.0817 3.29913,0.11433 0.84928,0.0327 1.37191,0.0653 1.91082,-2e-5 0.53892,-0.0654 1.09421,-0.22869 1.71483,-0.44101 0.62062,-0.21232 1.30657,-0.47364 2.02524,-0.63695 0.71868,-0.1633 1.46994,-0.22863 2.43357,-0.29396 0.96363,-0.0653 2.13952,-0.13065 3.02148,-0.1633 0.88196,-0.0327 1.46991,-0.0327 1.91088,-0.0327 0.44098,0 0.73496,0 1.02868,0"
       id="path262"
       inkscape:path-effect="#path-effect264"
       inkscape:original-d="m 120.14043,165.1196 c 0.5229,2.6e-4 1.04553,2.6e-4 1.5679,0 0.62091,-0.0324 1.24152,-0.0651 1.86189,-0.098 0.55557,0.0329 1.11086,0.0656 1.66589,0.098 1.3722,0.16359 2.74409,0.32691 4.11574,0.48997 0.7189,2.6e-4 1.43751,2.6e-4 2.15587,0 0.81689,0.13092 1.63349,0.26158 2.44984,0.39197 0.55557,0.19626 1.11086,0.39224 1.66589,0.58796 0.65358,0.0983 1.30685,0.19626 1.95988,0.29399 1.37221,0.0656 2.74409,0.13092 4.11574,0.19598 1.17622,0.0329 2.35212,0.0656 3.52778,0.098 0.52291,0.0329 1.04553,0.0656 1.5679,0.098 0.55557,-0.16306 1.11086,-0.32638 1.6659,-0.48997 0.68623,-0.26105 1.37218,-0.52237 2.05787,-0.78395 0.75156,-0.0651 1.50283,-0.13039 2.25386,-0.19599 1.17621,-0.0651 2.35211,-0.13039 3.52777,-0.19598 0.58824,2.6e-4 1.17619,2.6e-4 1.76389,0 0.29425,2.6e-4 0.58823,2.6e-4 0.88195,0" />
    <path
       style="fill:none;stroke:#000000;stroke-width:0.8;stroke-linecap:butt;stroke-linejoin:miter;stroke-opacity:1;stroke-miterlimit:4;stroke-dasharray:none"
       d="m 124.64815,175.70293 c 0.29424,0 0.58822,0 0.9802,0 0.39198,0 0.88194,0 1.27394,0.0981 0.392,0.0981 0.68598,0.29408 1.02897,0.49005 0.34298,0.19596 0.73495,0.39195 1.15959,0.52255 0.42463,0.1306 0.88192,0.19593 1.43722,0.24491 0.55529,0.049 1.20857,0.0816 1.89451,0.049 0.68594,-0.0327 1.40455,-0.13068 1.92713,-0.26135 0.52257,-0.13067 0.84921,-0.29399 1.2902,-0.50632 0.44098,-0.21232 0.99626,-0.47363 1.50261,-0.65328 0.50635,-0.17965 0.96364,-0.27765 1.53531,-0.34296 0.57167,-0.0653 1.25761,-0.098 2.04157,-0.11431 0.78397,-0.0163 1.66589,-0.0163 2.4662,0.049 0.80032,0.0654 1.51892,0.19601 2.20487,0.27766 0.68595,0.0816 1.33923,0.11431 2.02519,0.13063 0.68595,0.0163 1.40456,0.0163 2.00886,0.0163 0.6043,0 1.09426,0 1.43727,0.0327 0.343,0.0327 0.53899,0.0981 0.73466,0.16327"
       id="path266"
       inkscape:path-effect="#path-effect268"
       inkscape:original-d="m 124.64815,175.70293 c 0.29424,2.6e-4 0.58822,2.6e-4 0.88194,0 0.49024,2.6e-4 0.9802,2.6e-4 1.46991,0 0.29425,0.19626 0.58823,0.39224 0.88194,0.58796 0.39225,0.19626 0.78422,0.39224 1.17593,0.58797 0.45758,0.0656 0.91487,0.13092 1.37191,0.19598 0.65357,0.0329 1.30685,0.0656 1.95988,0.098 0.7189,-0.0977 1.43751,-0.19573 2.15586,-0.29398 0.32692,-0.16307 0.65356,-0.32639 0.97994,-0.48997 0.55558,-0.26106 1.11086,-0.52237 1.6659,-0.78395 0.45758,-0.0977 0.91487,-0.19573 1.37191,-0.29399 0.68624,-0.0324 1.37218,-0.0651 2.05787,-0.098 0.88223,2.6e-4 1.76415,2.6e-4 2.64583,0 0.71891,0.13093 1.43751,0.26158 2.15587,0.39198 0.65357,0.0329 1.30685,0.0656 1.95987,0.098 0.7189,2.6e-4 1.43751,2.6e-4 2.15587,0 0.49024,2.6e-4 0.9802,2.6e-4 1.46991,0 0.19625,0.0656 0.39224,0.13092 0.58796,0.19599" />
    <path
       style="fill:none;stroke:#000000;stroke-width:0.8;stroke-linecap:butt;stroke-linejoin:miter;stroke-opacity:1;stroke-miterlimit:4;stroke-dasharray:none"
       d="m 151.59645,175.89892 c 0,0 0,0 0.29414,0.19609 0.29414,0.1961 0.88209,0.58806 1.42106,0.83297 0.53898,0.24492 1.02893,0.34291 1.51882,0.29385 0.48989,-0.0491 0.97985,-0.24504 1.40423,-0.0135 0.42439,0.2315 0.78313,0.89009 1.14172,1.54839"
       id="path270"
       inkscape:path-effect="#path-effect272"
       inkscape:original-d="m 151.59645,175.89892 c 2.6e-4,2.6e-4 2.6e-4,2.6e-4 0,0 0.58824,0.39225 1.17619,0.78421 1.76389,1.17592 0.49024,0.0983 0.9802,0.19626 1.46991,0.29398 0.49024,-0.19572 0.9802,-0.39171 1.4699,-0.58796 0.35903,0.65889 0.71778,1.31748 1.07627,1.97583" />
    <path
       style="fill:none;stroke:#000000;stroke-width:0.8;stroke-linecap:butt;stroke-linejoin:miter;stroke-opacity:1;stroke-miterlimit:4;stroke-dasharray:none"
       d="m 38.525609,182.64445 3.012336,-0.10775"
       id="path6158-5" />
    <path
       style="fill:none;stroke:#000000;stroke-width:0.8;stroke-linecap:butt;stroke-linejoin:miter;stroke-opacity:1;stroke-miterlimit:4;stroke-dasharray:none"
       d="m 27.722472,135.22642 c 7.336418,-1.8341 14.672642,-3.66816 22.008682,-5.50217"
       id="path1440"
       inkscape:path-effect="#path-effect1442"
       inkscape:original-d="m 27.722472,135.22642 c 7.336494,-1.8338 14.67272,-3.66785 22.008682,-5.50217" />
    <path
       style="fill:none;stroke:#000000;stroke-width:0.8;stroke-linecap:butt;stroke-linejoin:miter;stroke-opacity:1;stroke-miterlimit:4;stroke-dasharray:none"
       d="M 48.884667,125.28019 C 66.73162,119.84851 84.578403,114.41688 102.42502,108.9853"
       id="path1444"
       inkscape:path-effect="#path-effect1446"
       inkscape:original-d="m 48.884667,125.28019 c 17.847048,-5.43137 35.693831,-10.863 53.540353,-16.29489" />
    <path
       style="fill:none;stroke:#000000;stroke-width:0.8;stroke-linecap:butt;stroke-linejoin:miter;stroke-opacity:1;stroke-miterlimit:4;stroke-dasharray:none"
       d="m 107.71556,111.948 c 9.10007,4.37367 18.19981,8.7472 27.29923,13.12056"
       id="path1448"
       inkscape:path-effect="#path-effect1450"
       inkscape:original-d="m 107.71556,111.948 c 9.10001,4.37379 18.19976,8.74731 27.29923,13.12056" />
    <path
       style="fill:none;stroke:#000000;stroke-width:0.8;stroke-linecap:butt;stroke-linejoin:miter;stroke-opacity:1;stroke-miterlimit:4;stroke-dasharray:none"
       d="m 134.37993,119.56639 c 3.45657,-1.97518 6.91307,-3.95032 10.36947,-5.92541"
       id="path1452"
       inkscape:path-effect="#path-effect1454"
       inkscape:original-d="m 134.37993,119.56639 c 3.45675,-1.97487 6.91325,-3.95001 10.36947,-5.92541" />
    <path
       style="fill:none;stroke:#000000;stroke-width:0.8;stroke-linecap:butt;stroke-linejoin:miter;stroke-opacity:1;stroke-miterlimit:4;stroke-dasharray:none"
       d="m 150.03995,116.18044 c 11.71007,4.79689 23.41981,9.59366 35.12924,14.39029"
       id="path1456"
       inkscape:path-effect="#path-effect1458"
       inkscape:original-d="m 150.03995,116.18044 c 11.71001,4.79703 23.41976,9.59379 35.12924,14.39029" />
    <path
       style="fill:none;stroke:#000000;stroke-width:0.8;stroke-linecap:butt;stroke-linejoin:miter;stroke-opacity:1;stroke-miterlimit:4;stroke-dasharray:none"
       d="m 189.19001,136.28453 c -0.0705,2.53971 -0.14109,5.07918 -0.21162,7.61839"
       id="path1460"
       inkscape:path-effect="#path-effect1462"
       inkscape:original-d="m 189.19001,136.28453 c -0.0703,2.53972 -0.14082,5.07919 -0.21162,7.61839" />
    <path
       style="fill:none;stroke:#000000;stroke-width:0.8;stroke-linecap:butt;stroke-linejoin:miter;stroke-opacity:1;stroke-miterlimit:4;stroke-dasharray:none"
       d="m 184.59882,144.98435 c -1.66806,0.49738 -3.33629,0.9948 -5.00464,1.49226"
       id="path1464"
       inkscape:path-effect="#path-effect1466"
       inkscape:original-d="m 184.59882,144.98435 c -1.66797,0.49769 -3.3362,0.99511 -5.00464,1.49226" />
    <path
       style="fill:none;stroke:#000000;stroke-width:0.8;stroke-linecap:butt;stroke-linejoin:miter;stroke-opacity:1;stroke-miterlimit:4;stroke-dasharray:none"
       d="m 187.26891,146.52576 c 0.14109,5.0792 0.28217,10.15813 0.42325,15.23678"
       id="path1468"
       inkscape:path-effect="#path-effect1470"
       inkscape:original-d="m 187.26891,146.52576 c 0.14135,5.07919 0.28243,10.15812 0.42325,15.23678" />
    <path
       style="fill:none;stroke:#000000;stroke-width:0.8;stroke-linecap:butt;stroke-linejoin:miter;stroke-opacity:1;stroke-miterlimit:4;stroke-dasharray:none"
       d="m 190.71073,165.04861 c 0.14109,7.26596 0.28217,14.53164 0.42325,21.79706"
       id="path1472"
       inkscape:path-effect="#path-effect1474"
       inkscape:original-d="m 190.71073,165.04861 c 0.14135,7.26595 0.28243,14.53163 0.42325,21.79706" />
    <path
       style="fill:none;stroke:#000000;stroke-width:0.8;stroke-linecap:butt;stroke-linejoin:miter;stroke-opacity:1;stroke-miterlimit:4;stroke-dasharray:none"
       d="m 158.29321,189.19001 c 8.32407,0.35271 16.64786,0.70542 24.97139,1.05811"
       id="path1476"
       inkscape:path-effect="#path-effect1478"
       inkscape:original-d="m 158.29321,189.19001 c 8.32406,0.35297 16.64785,0.70567 24.97139,1.05811" />
    <path
       style="fill:none;stroke:#000000;stroke-width:0.8;stroke-linecap:butt;stroke-linejoin:miter;stroke-opacity:1;stroke-miterlimit:4;stroke-dasharray:none"
       d="m 152.79104,188.76677 c -16.15357,0.91701 -32.30737,1.83404 -48.46143,2.75108"
       id="path1480"
       inkscape:path-effect="#path-effect1482"
       inkscape:original-d="m 152.79104,188.76677 c -16.15355,0.91729 -32.30735,1.83432 -48.46143,2.75108" />
    <path
       style="fill:none;stroke:#000000;stroke-width:0.8;stroke-linecap:butt;stroke-linejoin:miter;stroke-opacity:1;stroke-miterlimit:4;stroke-dasharray:none"
       d="m 57.561167,190.24812 41.901141,1.9046"
       id="path1484" />
    <path
       style="fill:none;stroke:#000000;stroke-width:0.8;stroke-linecap:butt;stroke-linejoin:miter;stroke-opacity:1;stroke-miterlimit:4;stroke-dasharray:none"
       d="m 52.69386,187.92028 -23.06679,-0.63487 -0.423243,0.21162"
       id="path1486" />
    <path
       style="fill:none;stroke:#000000;stroke-width:0.8;stroke-linecap:butt;stroke-linejoin:miter;stroke-opacity:1;stroke-miterlimit:4;stroke-dasharray:none"
       d="m 27.722472,133.48061 -0.139248,2.78496 0.139248,-0.13925"
       id="path1634" />
    <path
       style="fill:none;stroke:#000000;stroke-width:0.8;stroke-linecap:butt;stroke-linejoin:miter;stroke-opacity:1;stroke-miterlimit:4;stroke-dasharray:none"
       d="m 49.731154,128.47861 -0.139248,2.78496 0.139248,-0.13925"
       id="path1634-4" />
    <path
       style="fill:none;stroke:#000000;stroke-width:0.8;stroke-linecap:butt;stroke-linejoin:miter;stroke-opacity:1;stroke-miterlimit:4;stroke-dasharray:none"
       d="m 48.884667,123.43461 -0.139248,2.78496 0.139248,-0.13925"
       id="path1634-0" />
    <path
       style="fill:none;stroke:#000000;stroke-width:0.8;stroke-linecap:butt;stroke-linejoin:miter;stroke-opacity:1;stroke-miterlimit:4;stroke-dasharray:none"
       d="m 102.47922,107.76131 -0.11977,2.76004 0.11977,-0.13802"
       id="path1634-47" />
    <path
       style="fill:none;stroke:#000000;stroke-width:0.8;stroke-linecap:butt;stroke-linejoin:miter;stroke-opacity:1;stroke-miterlimit:4;stroke-dasharray:none"
       d="m 107.83581,110.95521 -0.13293,2.75034 0.13293,-0.13753"
       id="path1634-6" />
    <path
       style="fill:none;stroke:#000000;stroke-width:0.8;stroke-linecap:butt;stroke-linejoin:miter;stroke-opacity:1;stroke-miterlimit:4;stroke-dasharray:none"
       d="m 135.01479,123.22261 -0.13925,2.78496 0.13925,-0.13925"
       id="path1634-1" />
    <path
       style="fill:none;stroke:#000000;stroke-width:0.8;stroke-linecap:butt;stroke-linejoin:miter;stroke-opacity:1;stroke-miterlimit:4;stroke-dasharray:none"
       d="m 134.37993,118.32061 -0.13925,2.78496 0.13925,-0.13925"
       id="path1634-9" />
    <path
       style="fill:none;stroke:#000000;stroke-width:0.8;stroke-linecap:butt;stroke-linejoin:miter;stroke-opacity:1;stroke-miterlimit:4;stroke-dasharray:none"
       d="m 144.88865,112.35561 -0.13925,2.78496 0.13925,-0.13925"
       id="path1634-5" />
    <path
       style="fill:none;stroke:#000000;stroke-width:0.8;stroke-linecap:butt;stroke-linejoin:miter;stroke-opacity:1;stroke-miterlimit:4;stroke-dasharray:none"
       d="m 150.1792,114.99561 -0.13925,2.78496 0.13925,-0.13925"
       id="path1634-00" />
    <path
       style="fill:none;stroke:#000000;stroke-width:0.8;stroke-linecap:butt;stroke-linejoin:miter;stroke-opacity:1;stroke-miterlimit:4;stroke-dasharray:none"
       d="m 185.30844,128.78561 -0.13925,2.78496 0.13925,-0.13925"
       id="path1634-57" />
    <path
       style="fill:none;stroke:#000000;stroke-width:0.8;stroke-linecap:butt;stroke-linejoin:miter;stroke-opacity:1;stroke-miterlimit:4;stroke-dasharray:none"
       d="m 183.2646,188.80261 -0.13925,2.78496 0.13925,-0.13925"
       id="path1634-7" />
    <path
       style="fill:none;stroke:#000000;stroke-width:0.8;stroke-linecap:butt;stroke-linejoin:miter;stroke-opacity:1;stroke-miterlimit:4;stroke-dasharray:none"
       d="m 158.29321,187.38961 -0.13925,2.78496 0.13925,-0.13925"
       id="path1634-54" />
    <path
       style="fill:none;stroke:#000000;stroke-width:0.8;stroke-linecap:butt;stroke-linejoin:miter;stroke-opacity:1;stroke-miterlimit:4;stroke-dasharray:none"
       d="m 152.79104,187.42061 -0.13925,2.78496 0.13925,-0.13925"
       id="path1634-92" />
    <path
       style="fill:none;stroke:#000000;stroke-width:0.8;stroke-linecap:butt;stroke-linejoin:miter;stroke-opacity:1;stroke-miterlimit:4;stroke-dasharray:none"
       d="m 104.32961,190.27261 -0.13924,2.78496 0.13924,-0.13925"
       id="path1634-2" />
    <path
       style="fill:none;stroke:#000000;stroke-width:0.8;stroke-linecap:butt;stroke-linejoin:miter;stroke-opacity:1;stroke-miterlimit:4;stroke-dasharray:none"
       d="m 99.462308,190.90661 -0.139248,2.78496 0.139248,-0.13925"
       id="path1634-56" />
    <path
       style="fill:none;stroke:#000000;stroke-width:0.8;stroke-linecap:butt;stroke-linejoin:miter;stroke-opacity:1;stroke-miterlimit:4;stroke-dasharray:none"
       d="m 57.561167,188.94861 -0.139248,2.78496 0.139248,-0.13925"
       id="path1634-45" />
    <path
       style="fill:none;stroke:#000000;stroke-width:0.8;stroke-linecap:butt;stroke-linejoin:miter;stroke-opacity:1;stroke-miterlimit:4;stroke-dasharray:none"
       d="m 52.69386,186.32061 -0.139248,2.78496 0.139248,-0.13925"
       id="path1634-15" />
    <path
       style="fill:none;stroke:#000000;stroke-width:0.8;stroke-linecap:butt;stroke-linejoin:miter;stroke-opacity:1;stroke-miterlimit:4;stroke-dasharray:none"
       d="m 29.203827,186.19661 -0.139248,2.78496 0.139248,-0.13925"
       id="path1634-8" />
    <path
       style="fill:none;stroke:#000000;stroke-width:0.8;stroke-linecap:butt;stroke-linejoin:miter;stroke-opacity:1;stroke-miterlimit:4;stroke-dasharray:none"
       d="m 192.61932,186.98492 -2.78496,-0.13925 0.13925,0.13925"
       id="path1634-90" />
    <path
       style="fill:none;stroke:#000000;stroke-width:0.8;stroke-linecap:butt;stroke-linejoin:miter;stroke-opacity:1;stroke-miterlimit:4;stroke-dasharray:none"
       d="m 192.25632,165.04861 -2.78496,-0.13925 0.13925,0.13925"
       id="path1634-90-9" />
    <path
       style="fill:none;stroke:#000000;stroke-width:0.8;stroke-linecap:butt;stroke-linejoin:miter;stroke-opacity:1;stroke-miterlimit:4;stroke-dasharray:none"
       d="m 189.23832,161.76254 -2.78496,-0.13925 0.13925,0.13925"
       id="path1634-90-8" />
    <path
       style="fill:none;stroke:#000000;stroke-width:0.8;stroke-linecap:butt;stroke-linejoin:miter;stroke-opacity:1;stroke-miterlimit:4;stroke-dasharray:none"
       d="m 188.91432,146.52576 -2.78496,-0.13925 0.13925,0.13925"
       id="path1634-90-7" />
    <path
       style="fill:none;stroke:#000000;stroke-width:0.8;stroke-linecap:butt;stroke-linejoin:miter;stroke-opacity:1;stroke-miterlimit:4;stroke-dasharray:none"
       d="m 190.89032,136.28453 -2.78496,-0.13925 0.13925,0.13925"
       id="path1634-90-75" />
    <path
       style="fill:none;stroke:#000000;stroke-width:0.8;stroke-linecap:butt;stroke-linejoin:miter;stroke-opacity:1;stroke-miterlimit:4;stroke-dasharray:none"
       d="m 190.56332,144.04217 -2.78496,-0.13925 0.13925,0.13925"
       id="path1634-90-95" />
    <text
       xml:space="preserve"
       style="font-style:normal;font-variant:normal;font-weight:normal;font-stretch:normal;font-size:4.93889px;line-height:1.25;font-family:'Ink Free';-inkscape-font-specification:'Ink Free, Normal';font-variant-ligatures:normal;font-variant-caps:normal;font-variant-numeric:normal;font-variant-east-asian:normal;fill:#000000;fill-opacity:1;stroke:none;stroke-width:0.264583"
       x="112.91377"
       y="202.62608"
       id="text4057"><tspan
         sodipodi:role="line"
         id="tspan4055"
         style="font-style:normal;font-variant:normal;font-weight:normal;font-stretch:normal;font-size:4.93889px;font-family:'Ink Free';-inkscape-font-specification:'Ink Free, Normal';font-variant-ligatures:normal;font-variant-caps:normal;font-variant-numeric:normal;font-variant-east-asian:normal;stroke-width:0.264583"
         x="112.91377"
         y="202.62608">LAVEZZORIO COMMUNITY CENTER</tspan><tspan
         sodipodi:role="line"
         style="font-style:normal;font-variant:normal;font-weight:normal;font-stretch:normal;font-size:4.93889px;font-family:'Ink Free';-inkscape-font-specification:'Ink Free, Normal';font-variant-ligatures:normal;font-variant-caps:normal;font-variant-numeric:normal;font-variant-east-asian:normal;stroke-width:0.264583"
         x="112.91377"
         y="208.7997"
         id="tspan4389">STUDIO GANG</tspan></text>
    <path
       style="fill:none;stroke:#000000;stroke-width:0.8;stroke-linecap:butt;stroke-linejoin:miter;stroke-opacity:1;stroke-miterlimit:4;stroke-dasharray:none"
       d="m 113.77308,204.17284 h 82.15035 v 0"
       id="path6214" />
    <path
       style="fill:none;stroke:#000000;stroke-width:0.8;stroke-linecap:butt;stroke-linejoin:miter;stroke-opacity:1;stroke-miterlimit:4;stroke-dasharray:none"
       d="m 113.42935,211.04735 32.82577,-0.17186 h 0.51559"
       id="path6363" />
    <path
       style="opacity:0.5;fill:none;fill-opacity:1;stroke-width:3.02362209;stroke-miterlimit:4;stroke-dasharray:none"
       d="m 476.13545,683.7481 -4.94694,-19.30329 4.24521,0.43814 c 2.3592,0.24349 6.15952,1.4434 8.55414,2.70089 4.04302,2.1231 4.90124,2.26156 13.9069,2.24372 9.35609,-0.0185 9.77939,-0.0971 16.79645,-3.11924 7.05535,-3.03859 7.39727,-3.10104 17.19637,-3.14108 5.49883,-0.0225 16.65648,0.32817 24.79476,0.7792 14.70156,0.81476 14.82752,0.83751 19.55565,3.53247 4.0451,2.30565 5.45653,2.69309 9.4115,2.58347 4.58369,-0.12704 4.68377,-0.0821 6.74326,3.03002 l 2.09051,3.15898 -1.33951,10.56924 c -0.73673,5.81308 -1.45275,10.68247 -1.59115,10.82087 -0.27229,0.27229 -100.91691,4.98005 -106.863,4.99863 l -3.6072,0.0113 z"
       id="path19754"
       transform="scale(0.26458333)" />
    <path
       style="opacity:0.5;fill:none;fill-opacity:1;stroke-width:3.02362209;stroke-miterlimit:4;stroke-dasharray:none"
       d="m 177.42732,697.49461 c -9.97225,-0.24307 -18.32835,-0.63977 -18.56912,-0.88156 -0.45956,-0.4615 -2.87139,-19.76232 -2.88391,-23.07862 l -0.007,-1.9228 11.20282,0.53479 11.20283,0.53478 3.39409,-3.09748 c 4.61694,-4.21345 5.66847,-4.66654 13.23434,-5.70245 5.88908,-0.80633 7.18223,-0.72936 12.41485,0.73891 3.21256,0.90145 6.74266,1.63899 7.84465,1.63899 h 2.00363 l -2.45456,15.79667 -2.45456,15.79666 -8.39823,0.042 c -4.61902,0.0231 -16.55733,-0.15685 -26.52957,-0.39992 z"
       id="path19793"
       transform="scale(0.26458333)" />
    <path
       style="opacity:0.5;fill:none;fill-opacity:1;stroke-width:3.02362209;stroke-miterlimit:4;stroke-dasharray:none"
       d="m 120.37456,606.16261 c -1.75963,-0.44753 -5.26889,-0.64015 -7.79835,-0.42807 l -4.59903,0.38562 v -14.4329 c 0,-15.57289 -0.27082,-14.49697 4.49552,-17.85993 0.93286,-0.65819 4.72447,-1.54082 8.4258,-1.96139 3.70133,-0.42058 9.38977,-1.66944 12.64098,-2.77524 3.25121,-1.10581 7.07809,-2.01056 8.50418,-2.01056 1.42608,0 4.89221,-1.21982 7.70249,-2.7107 3.12952,-1.66025 8.34697,-3.41833 13.4636,-4.53673 5.57446,-1.21847 10.21953,-2.83372 13.96096,-4.85472 7.86353,-4.24761 14.87795,-5.74313 24.7866,-5.28465 4.39907,0.20355 9.0128,0.8486 10.25273,1.43344 2.90033,1.36801 9.40089,0.31555 22.61398,-3.66127 7.58958,-2.28428 10.82414,-3.74813 15.92298,-7.20615 7.8321,-5.31172 11.28312,-6.55769 21.12802,-7.62819 4.21624,-0.45846 12.52487,-1.92174 18.46361,-3.25174 6.14725,-1.37669 15.44818,-2.76853 21.59544,-3.23165 12.12578,-0.91353 34.2938,-4.13046 40.43561,-5.86784 2.22382,-0.62906 11.01221,-2.60204 19.52977,-4.38439 8.51756,-1.78235 16.32604,-3.45136 17.35217,-3.7089 l 1.86571,-0.46826 v 21.4846 21.48461 l -29.39379,4.34511 -29.39378,4.34511 -10.79772,4.6829 c -9.08121,3.93847 -11.09449,4.54847 -12.66456,3.83726 -2.36,-1.06904 -15.25202,-2.70239 -20.52843,-2.60083 -2.19953,0.0423 -8.021,0.31955 -12.93659,0.61604 -8.58246,0.51767 -9.12251,0.45363 -13.59712,-1.61228 -3.20797,-1.4811 -5.94031,-2.14072 -8.77016,-2.11722 -7.30472,0.0607 -28.4969,8.48013 -37.53627,14.91281 -4.09495,2.91409 -5.7844,3.58665 -10.79771,4.29854 -3.26877,0.46416 -7.83667,1.57212 -10.15091,2.46214 -2.31423,0.89002 -5.78557,1.61822 -7.71409,1.61822 -1.92853,0 -5.79385,0.68169 -8.58961,1.51486 -2.79575,0.83318 -6.81352,1.72894 -8.92836,1.99058 -7.07905,0.87581 -19.35718,5.19131 -23.12769,8.12889 -2.72225,2.12089 -5.0253,3.05616 -9.88365,4.01377 -8.9011,1.75448 -12.25853,1.97345 -15.93233,1.03911 z"
       id="path19832"
       transform="scale(0.26458333)" />
    <path
       style="opacity:0.5;fill:none;fill-opacity:1;stroke-width:3.02362209;stroke-miterlimit:4;stroke-dasharray:none"
       d="m 600.59125,589.17516 c -2.02455,-0.54566 -5.29932,-2.06403 -7.27723,-3.37416 -1.97793,-1.31012 -6.40633,-3.80875 -9.8409,-5.55251 l -6.24467,-3.17047 h -16.07183 -16.07183 l -5.32237,2.89482 -5.32238,2.89481 -16.67297,0.58017 -16.67298,0.58017 -13.59713,-4.63444 -13.59713,-4.63444 -11.19763,0.0795 c -6.1587,0.0437 -16.59649,0.11881 -23.1951,0.16693 -6.5986,0.0481 -13.72481,-0.31586 -15.83602,-0.80883 -3.65576,-0.85363 -4.07083,-1.24439 -8.71607,-8.20553 -2.68263,-4.02007 -4.9273,-7.38207 -4.98815,-7.4711 -0.0609,-0.089 -3.87699,-0.99993 -8.4803,-2.02422 l -8.36965,-1.86235 0.29678,-21.17087 c 0.16324,-11.64398 0.40997,-21.29763 0.5483,-21.45256 0.13833,-0.15492 4.68379,0.99068 10.10101,2.54579 5.41723,1.55511 11.90582,3.23431 14.41909,3.73156 2.51326,0.49725 11.48963,3.60727 19.94748,6.91116 14.9736,5.84915 28.85343,9.55515 41.469,11.07248 2.41948,0.291 8.99045,1.40336 14.60214,2.4719 12.40188,2.36148 19.19758,2.4485 26.79506,0.34314 7.74788,-2.14705 10.66249,-2.02916 21.52907,0.87084 11.42717,3.04961 14.91091,4.52266 22.0843,9.33805 l 5.64313,3.78815 8.86169,0.52756 c 4.87393,0.29016 13.6602,0.7963 19.52503,1.12476 l 10.66333,0.59719 -0.43393,2.47448 c -0.23867,1.36097 -1.22319,9.22306 -2.18782,17.47132 -0.96465,8.24825 -1.96863,14.97253 -2.23109,14.94284 -0.26246,-0.0297 -2.13366,-0.50043 -4.15823,-1.04609 z"
       id="path19871"
       transform="scale(0.26458333)" />
    <path
       style="opacity:0.5;fill:none;fill-opacity:1;stroke-width:3.02362209;stroke-miterlimit:4;stroke-dasharray:none"
       d="m 163.76539,670.46132 c -7.48763,-0.2239 -8.59912,-0.4344 -8.60545,-1.62975 -0.008,-1.42033 -2.01938,-19.63823 -2.81455,-25.48628 l -0.45116,-3.31802 5.43569,-1.78158 c 2.98962,-0.97986 7.59522,-2.05052 10.23466,-2.37924 2.63944,-0.32872 8.47203,-1.54316 12.96131,-2.69875 4.48928,-1.1556 10.07825,-2.10109 12.41995,-2.10109 3.21998,0 5.68123,-0.68225 10.099,-2.7994 4.52198,-2.1671 6.86546,-2.80372 10.37524,-2.81849 2.49362,-0.0105 5.88075,-0.33188 7.52696,-0.71419 2.79883,-0.64999 2.96875,-0.58386 2.61778,1.01887 -0.20643,0.94268 -1.65241,9.97133 -3.21329,20.06365 -1.56088,10.09233 -3.02375,18.53548 -3.25084,18.76257 -0.22708,0.22708 -3.78038,-0.43255 -7.8962,-1.46585 -5.93424,-1.48983 -8.53508,-1.76369 -12.56415,-1.323 -8.35859,0.91424 -11.22517,1.99553 -15.24441,5.75025 -3.04415,2.8438 -4.26914,3.48462 -6.39865,3.34727 -1.44854,-0.0934 -6.50289,-0.28557 -11.23189,-0.42697 z"
       id="path36171"
       transform="scale(0.26458333)" />
    <path
       style="opacity:0.5;fill:none;fill-opacity:1;stroke-width:3.02362209;stroke-miterlimit:4;stroke-dasharray:none"
       d="m 592.81385,670.95276 c -1.68753,-2.08086 -2.32347,-2.29409 -6.84193,-2.29409 -4.24149,0 -5.56909,-0.37912 -8.93726,-2.55217 -4.36925,-2.81892 -0.48396,-2.39799 -39.9949,-4.33307 -11.96738,-0.5861 -16.17125,0.0731 -24.63933,3.86337 -5.23478,2.34309 -6.40314,2.55598 -14.10575,2.57017 -7.5946,0.014 -8.85745,-0.20262 -13.19721,-2.26378 -2.63945,-1.25359 -6.92316,-2.50515 -9.51937,-2.78125 l -4.72039,-0.502 -3.12589,-11.92375 c -2.92179,-11.1452 -3.43926,-12.37247 -7.92517,-18.79603 l -4.79927,-6.87228 5.04715,-0.27149 c 8.85934,-0.47655 37.93275,2.2059 47.75405,4.40601 9.55501,2.14045 23.68291,3.37081 39.37737,3.42925 8.17298,0.0304 10.25635,-0.26148 17.19637,-2.40943 7.12754,-2.206 9.28542,-2.49092 22.15355,-2.92516 l 14.25683,-0.48109 -0.467,2.72519 c -0.25685,1.49886 -1.5738,11.90326 -2.92655,23.12089 -1.35274,11.21763 -2.51923,20.43824 -2.59219,20.49024 -0.0729,0.052 -0.96986,-0.93779 -1.99311,-2.19953 z"
       id="path36210"
       transform="scale(0.26458333)" />
    <path
       style="opacity:0.5;fill:none;fill-opacity:1;stroke-width:3.02362209;stroke-miterlimit:4;stroke-dasharray:none"
       d="m 107.98263,544.48491 0.005,-9.79793 40.98588,-9.88296 40.98588,-9.88297 97.97929,-35.99788 c 53.88861,-19.79884 99.33673,-36.48379 100.99582,-37.07768 l 3.01654,-1.0798 -0.21713,15.25727 -0.21712,15.25726 -5.99874,1.79549 c -7.07473,2.11755 -11.04557,3.80239 -15.31824,6.49961 -1.7194,1.08541 -5.00336,2.32948 -7.29767,2.76458 -2.29432,0.43511 -6.51255,1.89874 -9.37386,3.25251 -2.8613,1.35376 -6.97409,2.99835 -9.13952,3.65463 -2.16543,0.65628 -4.6849,1.67569 -5.59881,2.26535 -0.91392,0.58967 -4.66383,1.83306 -8.33315,2.76309 -8.04723,2.03968 -12.37594,3.69275 -16.1891,6.18239 -4.71722,3.07989 -7.77565,3.64444 -9.75478,1.8006 -2.56608,-2.39066 -6.83126,-1.9962 -12.96067,1.19867 -4.32955,2.25671 -5.66932,2.62285 -7.3121,1.99827 -2.31142,-0.87881 -5.41906,-0.32402 -8.29778,1.48135 -1.13309,0.7106 -3.38426,1.17642 -5.1989,1.07576 -4.56606,-0.25328 -12.25237,1.93819 -16.04646,4.57505 -2.06532,1.43538 -4.83209,2.46473 -7.59839,2.82691 -6.49953,0.85094 -22.95564,5.14295 -26.2547,6.84764 -1.58975,0.82145 -4.77924,3.11749 -7.08777,5.10231 -5.29989,4.55673 -10.29743,6.12852 -24.43257,7.68434 -4.02434,0.44295 -9.8427,1.79762 -13.59713,3.16578 -16.79624,6.12075 -31.10692,9.64532 -49.25383,12.13073 -3.24441,0.44437 -7.27922,1.5121 -8.96623,2.37274 -1.68702,0.86065 -4.52133,1.56482 -6.29849,1.56482 h -3.23118 z"
       id="path36249"
       transform="scale(0.26458333)" />
    <path
       style="opacity:0.5;fill:none;fill-opacity:1;stroke-width:3.02362209;stroke-miterlimit:4;stroke-dasharray:none"
       d="m 503.49358,505.11712 c -5.71879,-1.49399 -13.45716,-3.67836 -17.19637,-4.85415 -3.73921,-1.1758 -13.99704,-4.003 -22.79518,-6.28268 -10.86044,-2.81404 -17.85207,-5.09811 -21.77543,-7.11372 -5.13111,-2.6361 -6.44128,-2.96885 -11.68955,-2.96885 -5.57599,0 -6.17732,-0.18097 -10.61772,-3.19542 -5.33626,-3.62262 -15.46535,-7.53444 -21.70339,-8.38177 l -4.19912,-0.57038 v -15.47764 -15.47763 l 4.19912,1.87524 c 2.30951,1.03138 29.17463,13.06903 59.70027,26.75032 30.52564,13.6813 55.90028,24.87134 56.38808,24.86677 0.48781,-0.005 7.78844,-3.9166 16.22363,-8.69339 l 15.33671,-8.68507 3.04545,3.11882 c 1.96496,2.0123 4.44671,3.53495 6.99503,4.29172 5.65653,1.67981 7.23077,2.94887 10.43063,8.4086 1.56423,2.66896 2.84406,4.95928 2.84406,5.0896 0,0.13032 -2.60945,0.0743 -5.79877,-0.12444 -4.19,-0.26113 -7.71527,0.10505 -12.70665,1.31987 -3.79934,0.92469 -7.50504,1.68125 -8.2349,1.68125 -0.72987,0 -3.01733,0.89981 -5.08323,1.99958 -2.06591,1.09976 -4.48006,1.99957 -5.36477,1.99957 -0.88471,0 -4.12575,0.71985 -7.2023,1.59967 -7.32543,2.09488 -8.53807,2.02632 -20.7956,-1.17587 z"
       id="path36288"
       transform="scale(0.26458333)" />
    <path
       style="opacity:0.5;fill:none;fill-opacity:1;stroke-width:3.02362209;stroke-miterlimit:4;stroke-dasharray:none"
       d="m 151.67429,636.25419 c -0.47829,-1.24641 -5.59098,-1.24256 -34.69901,0.0261 l -8.9981,0.39218 V 622.3834 608.09432 l 4.08699,-0.48404 c 2.24785,-0.26622 5.8985,-0.0955 8.11257,0.37929 4.1889,0.89836 7.54017,0.67334 17.03188,-1.14356 6.13168,-1.17372 6.33336,-1.26446 11.42124,-5.13802 1.9033,-1.44904 3.93192,-2.63462 4.50803,-2.63462 0.57612,0 3.69789,-0.86687 6.93726,-1.92638 3.23937,-1.0595 7.68939,-2.16904 9.88893,-2.46563 2.19953,-0.29659 6.51138,-1.22935 9.58189,-2.07278 3.07051,-0.84344 7.10633,-1.53352 8.96849,-1.53352 1.86216,0 5.25498,-0.73679 7.53961,-1.6373 2.28463,-0.90052 6.64908,-1.95062 9.69878,-2.33355 4.59515,-0.57699 6.35444,-1.2641 10.27114,-4.01151 9.17835,-6.43824 30.79469,-15.21274 37.47722,-15.21274 1.97185,0 4.95937,0.84203 7.43064,2.09432 3.61003,1.82934 5.14991,2.10132 12.17083,2.14966 4.42084,0.0304 9.47759,-0.37268 11.23722,-0.89581 2.58489,-0.76849 4.81221,-0.70347 11.59755,0.33852 10.79329,1.65748 12.24911,1.93347 11.89189,2.25443 -0.16189,0.14544 -18.54689,8.07986 -40.85557,17.63204 -26.67602,11.42219 -40.69286,17.82118 -40.94578,18.69261 -0.2115,0.72876 -0.61527,3.12463 -0.89726,5.32417 -0.28198,2.19954 -0.67828,4.6026 -0.88065,5.34014 -0.43569,1.5879 -6.41401,3.05808 -12.43527,3.05808 -2.95081,0 -5.38275,0.67178 -8.89708,2.45763 -3.52057,1.78902 -6.37623,2.57664 -10.49675,2.89511 -3.11325,0.24061 -9.77771,1.47419 -14.80991,2.74127 -5.0322,1.26709 -10.28473,2.3038 -11.67229,2.3038 -1.38756,0 -4.61511,0.71985 -7.17234,1.59966 -5.57668,1.91866 -6.48589,1.96848 -7.09215,0.38859 z"
       id="path66907"
       transform="scale(0.26458333)" />
    <path
       style="opacity:0.5;fill:none;fill-opacity:1;stroke-width:3.02362209;stroke-miterlimit:4;stroke-dasharray:none"
       d="m 528.47839,630.19912 c -6.84806,-0.39218 -13.4973,-1.2868 -17.59628,-2.36748 -7.80368,-2.0574 -24.49602,-3.77658 -43.51884,-4.48209 l -13.73504,-0.5094 -15.7387,-23.13437 c -8.65628,-12.72391 -15.61274,-23.25347 -15.45879,-23.39903 0.15395,-0.14556 2.43946,0.0901 5.0789,0.52359 2.83513,0.46568 9.21765,0.54684 15.5967,0.19833 5.93875,-0.32446 14.93684,-0.61172 19.99578,-0.63837 9.1629,-0.0483 9.25001,-0.0307 22.79518,4.5883 l 13.59712,4.63675 17.59628,-0.26951 17.59628,-0.26951 5.59882,-3.19932 5.59882,-3.19932 h 15.24151 15.24151 l 6.75384,3.51039 c 3.71461,1.93071 8.19354,4.52952 9.95316,5.77512 1.75963,1.24561 5.08893,2.66513 7.39844,3.15449 3.5187,0.74559 4.19375,1.17063 4.16606,2.6231 -0.0676,3.54274 -3.68727,30.11513 -4.16777,30.59562 -0.27439,0.2744 -7.08985,0.80681 -15.14545,1.18313 -12.89517,0.60241 -15.5908,0.97496 -22.54327,3.11565 -8.68805,2.67508 -12.14788,2.83281 -34.30426,1.56393 z"
       id="path66946"
       transform="scale(0.26458333)" />
    <path
       style="opacity:0.5;fill:none;fill-opacity:1;stroke-width:3.02362209;stroke-miterlimit:4;stroke-dasharray:none"
       d="m 596.27397,552.96646 c -0.87982,-0.16429 -6.85039,-0.58182 -13.26793,-0.92784 l -11.66827,-0.62912 -3.92844,-2.86385 c -6.0461,-4.40763 -11.19482,-6.70607 -21.97337,-9.80916 -11.61834,-3.34486 -16.50506,-3.56549 -25.8125,-1.16537 -7.2561,1.87113 -13.10593,1.7501 -23.75974,-0.4916 -3.282,-0.69057 -9.87272,-1.80045 -14.64607,-2.46639 -9.4825,-1.32294 -23.87553,-4.40374 -28.91861,-6.18997 -1.75668,-0.62221 -8.9067,-3.36232 -15.88894,-6.08913 -6.98224,-2.72682 -15.26049,-5.47043 -18.39611,-6.09692 -3.13563,-0.62649 -9.84026,-2.36351 -14.8992,-3.86003 l -9.19805,-2.72096 -0.21501,-18.08996 -0.215,-18.08996 3.41433,0.46797 c 5.54353,0.75978 16.70651,5.15594 20.98789,8.26535 3.62993,2.63629 4.57085,2.92689 10.79772,3.3349 5.7129,0.37433 7.82443,0.93378 12.99494,3.44305 4.02317,1.95246 11.14883,4.22036 20.45649,6.51073 7.85556,1.93305 16.23506,4.2251 18.62111,5.09346 6.89742,2.51018 28.73832,8.21585 33.2241,8.67939 4.94922,0.51144 17.98351,-2.23813 23.98291,-5.05916 2.24349,-1.05493 4.65018,-1.91806 5.3482,-1.91806 0.69801,0 4.26129,-0.71732 7.91839,-1.59406 9.02759,-2.16422 12.12616,-2.04007 17.95951,0.71958 2.70137,1.27798 8.28019,3.66659 12.39738,5.30803 4.11718,1.64145 10.24188,4.54289 13.61042,6.44765 3.36855,1.90476 8.58745,4.42847 11.59755,5.60823 3.01011,1.17976 5.76672,2.40319 6.1258,2.71873 0.35909,0.31554 -0.17132,7.31994 -1.17868,15.56535 -1.73409,14.19371 -1.93124,15.02953 -3.70433,15.70365 -1.81664,0.69069 -8.51827,0.80202 -11.76649,0.19547 z"
       id="path66985"
       transform="scale(0.26458333)" />
    <path
       style="opacity:0.5;fill:none;fill-opacity:1;stroke-width:3.02362209;stroke-miterlimit:4;stroke-dasharray:none"
       d="m 107.97718,565.56222 v -8.66245 l 3.40179,-0.46627 c 1.87099,-0.25645 5.02033,-1.17455 6.99852,-2.04023 1.9782,-0.86568 5.75627,-1.81813 8.39571,-2.11655 2.63945,-0.29842 6.77857,-1.01532 9.19806,-1.59312 2.41949,-0.57779 6.55861,-1.29975 9.19806,-1.60435 2.63944,-0.3046 9.22547,-1.95783 14.63562,-3.67385 5.41015,-1.71601 10.20917,-3.12002 10.66448,-3.12002 0.45531,0 3.54298,-1.0872 6.86149,-2.41599 4.0634,-1.62707 8.51515,-2.67331 13.63295,-3.204 13.62382,-1.41272 19.73404,-3.5445 25.63867,-8.94503 1.89617,-1.73429 4.618,-3.64228 6.04852,-4.23999 3.95061,-1.65067 18.65711,-5.27598 24.35165,-6.00295 3.3109,-0.42267 6.06932,-1.34786 7.99831,-2.68269 4.30421,-2.97843 9.49591,-4.65272 14.94193,-4.81869 2.73216,-0.0833 5.90141,-0.73563 7.35872,-1.51474 2.8349,-1.51559 5.61589,-1.73759 7.42642,-0.59283 0.84558,0.53465 2.57467,-0.0241 5.99873,-1.93854 6.56302,-3.66943 9.85427,-4.21775 12.55677,-2.09197 2.94016,2.31273 4.52601,2.10241 11.38478,-1.50983 3.30529,-1.74077 9.17115,-4.09421 13.03525,-5.22986 3.8641,-1.13566 8.10541,-2.45421 9.42513,-2.93011 10.32152,-3.722 15.23403,-5.66443 18.55001,-7.33474 2.1149,-1.0653 5.75133,-2.34133 8.08096,-2.83562 2.32964,-0.4943 6.82869,-2.31252 9.99789,-4.04049 5.73939,-3.12935 14.51709,-6.45739 17.03133,-6.45739 1.19893,0 1.29129,1.63385 0.99416,17.58715 -0.20625,11.07342 -0.6469,17.90648 -1.18977,18.44935 -0.47421,0.47421 -7.7794,2.2781 -16.23376,4.00863 -8.45436,1.73054 -18.13035,3.84344 -21.50221,4.69535 -8.83279,2.23163 -30.59347,5.64887 -35.97147,5.64887 -6.81678,0 -16.8219,1.40766 -28.52917,4.0139 -5.7285,1.27526 -12.93493,2.54038 -16.01427,2.81138 -8.86907,0.78052 -15.43607,3.07416 -22.76357,7.95055 -6.71629,4.46964 -10.31578,5.83928 -25.62621,9.75105 -7.45396,1.90447 -7.68961,1.91554 -12.39738,0.58235 -6.35222,-1.79889 -17.55281,-1.76614 -24.79475,0.0725 -3.07935,0.78181 -8.11829,2.78334 -11.19764,4.44785 -3.64758,1.97168 -7.96817,3.49136 -12.39738,4.36057 -3.73921,0.73381 -9.89094,2.74424 -13.6705,4.46762 -3.77957,1.7234 -7.94564,3.13345 -9.25792,3.13345 -1.31229,0 -5.05291,0.90708 -8.3125,2.01573 -3.25958,1.10866 -8.71228,2.32741 -12.1171,2.70834 -3.75873,0.42053 -7.29832,1.34618 -9.01045,2.35636 l -2.81986,1.66376 z"
       id="path67024"
       transform="scale(0.26458333)" />
    <path
       style="opacity:0.5;fill:none;fill-opacity:1;stroke-width:3.02362209;stroke-miterlimit:4;stroke-dasharray:none"
       d="m 653.8618,530.73867 c -44.93956,-12.69307 -45.61,-12.91557 -56.788,-18.84667 -4.83898,-2.56758 -11.31761,-5.66219 -14.39696,-6.87689 -3.07935,-1.21471 -5.77878,-2.41391 -5.99873,-2.66488 -0.21995,-0.25097 -1.11976,-0.83916 -1.99958,-1.30707 -0.87981,-0.46792 -3.08516,-3.16735 -4.90078,-5.99874 -5.42352,-8.45779 -8.20832,-11.15124 -12.46891,-12.05994 -2.43998,-0.5204 -4.92687,-1.84608 -7.12886,-3.80017 l -3.38168,-3.00098 7.23647,-4.14112 c 3.98006,-2.27761 7.55368,-4.14397 7.94139,-4.14747 0.3877,-0.003 30.12869,10.30949 66.09109,22.91774 l 65.38618,22.9241 -0.004,6.07613 c -0.006,8.41709 -0.9368,21.68633 -1.5162,21.6083 -0.26372,-0.0355 -17.3958,-4.84255 -38.07143,-10.68234 z"
       id="path99798"
       transform="scale(0.26458333)" />
  </g>
</svg>
